<svg width="600" height="300" viewBox="0 0 600 300" fill="none" xmlns="http://www.w3.org/2000/svg">
  <rect width="600" height="300" fill="#D9D9D9" />
  <path
    d="M41.0455 168.545V170.818H32V168.545H41.0455ZM34.6364 164.364H37.3182V181C37.3182 181.758 37.428 182.326 37.6477 182.705C37.875 183.076 38.1629 183.326 38.5114 183.455C38.8674 183.576 39.2424 183.636 39.6364 183.636C39.9318 183.636 40.1742 183.621 40.3636 183.591C40.553 183.553 40.7045 183.523 40.8182 183.5L41.3636 185.909C41.1818 185.977 40.928 186.045 40.6023 186.114C40.2765 186.189 39.8636 186.227 39.3636 186.227C38.6061 186.227 37.8636 186.064 37.1364 185.739C36.4167 185.413 35.8182 184.917 35.3409 184.25C34.8712 183.583 34.6364 182.742 34.6364 181.727V164.364ZM51.983 186.364C50.4072 186.364 49.0246 185.989 47.8352 185.239C46.6534 184.489 45.7292 183.439 45.0625 182.091C44.4034 180.742 44.0739 179.167 44.0739 177.364C44.0739 175.545 44.4034 173.958 45.0625 172.602C45.7292 171.246 46.6534 170.193 47.8352 169.443C49.0246 168.693 50.4072 168.318 51.983 168.318C53.5587 168.318 54.9375 168.693 56.1193 169.443C57.3087 170.193 58.233 171.246 58.892 172.602C59.5587 173.958 59.892 175.545 59.892 177.364C59.892 179.167 59.5587 180.742 58.892 182.091C58.233 183.439 57.3087 184.489 56.1193 185.239C54.9375 185.989 53.5587 186.364 51.983 186.364ZM51.983 183.955C53.1799 183.955 54.1648 183.648 54.9375 183.034C55.7102 182.42 56.2822 181.614 56.6534 180.614C57.0246 179.614 57.2102 178.53 57.2102 177.364C57.2102 176.197 57.0246 175.11 56.6534 174.102C56.2822 173.095 55.7102 172.28 54.9375 171.659C54.1648 171.038 53.1799 170.727 51.983 170.727C50.786 170.727 49.8011 171.038 49.0284 171.659C48.2557 172.28 47.6837 173.095 47.3125 174.102C46.9413 175.11 46.7557 176.197 46.7557 177.364C46.7557 178.53 46.9413 179.614 47.3125 180.614C47.6837 181.614 48.2557 182.42 49.0284 183.034C49.8011 183.648 50.786 183.955 51.983 183.955ZM71.0767 186.364C69.5009 186.364 68.1184 185.989 66.929 185.239C65.7472 184.489 64.8229 183.439 64.1562 182.091C63.4972 180.742 63.1676 179.167 63.1676 177.364C63.1676 175.545 63.4972 173.958 64.1562 172.602C64.8229 171.246 65.7472 170.193 66.929 169.443C68.1184 168.693 69.5009 168.318 71.0767 168.318C72.6525 168.318 74.0313 168.693 75.2131 169.443C76.4025 170.193 77.3267 171.246 77.9858 172.602C78.6525 173.958 78.9858 175.545 78.9858 177.364C78.9858 179.167 78.6525 180.742 77.9858 182.091C77.3267 183.439 76.4025 184.489 75.2131 185.239C74.0313 185.989 72.6525 186.364 71.0767 186.364ZM71.0767 183.955C72.2737 183.955 73.2585 183.648 74.0312 183.034C74.804 182.42 75.3759 181.614 75.7472 180.614C76.1184 179.614 76.304 178.53 76.304 177.364C76.304 176.197 76.1184 175.11 75.7472 174.102C75.3759 173.095 74.804 172.28 74.0312 171.659C73.2585 171.038 72.2737 170.727 71.0767 170.727C69.8797 170.727 68.8949 171.038 68.1222 171.659C67.3494 172.28 66.7775 173.095 66.4062 174.102C66.035 175.11 65.8494 176.197 65.8494 177.364C65.8494 178.53 66.035 179.614 66.4062 180.614C66.7775 181.614 67.3494 182.42 68.1222 183.034C68.8949 183.648 69.8797 183.955 71.0767 183.955ZM85.7614 162.727V186H83.0795V162.727H85.7614ZM98.2642 168.545V170.818H89.2188V168.545H98.2642ZM91.8551 164.364H94.5369V181C94.5369 181.758 94.6468 182.326 94.8665 182.705C95.0938 183.076 95.3816 183.326 95.7301 183.455C96.0862 183.576 96.4612 183.636 96.8551 183.636C97.1506 183.636 97.393 183.621 97.5824 183.591C97.7718 183.553 97.9233 183.523 98.0369 183.5L98.5824 185.909C98.4006 185.977 98.1468 186.045 97.821 186.114C97.4953 186.189 97.0824 186.227 96.5824 186.227C95.8248 186.227 95.0824 186.064 94.3551 185.739C93.6354 185.413 93.0369 184.917 92.5597 184.25C92.09 183.583 91.8551 182.742 91.8551 181.727V164.364ZM102.298 186V168.545H104.98V186H102.298ZM103.662 165.636C103.139 165.636 102.688 165.458 102.31 165.102C101.938 164.746 101.753 164.318 101.753 163.818C101.753 163.318 101.938 162.89 102.31 162.534C102.688 162.178 103.139 162 103.662 162C104.185 162 104.632 162.178 105.003 162.534C105.382 162.89 105.571 163.318 105.571 163.818C105.571 164.318 105.382 164.746 105.003 165.102C104.632 165.458 104.185 165.636 103.662 165.636ZM109.892 192.545V168.545H112.483V171.318H112.801C112.998 171.015 113.271 170.629 113.619 170.159C113.975 169.682 114.483 169.258 115.142 168.886C115.809 168.508 116.71 168.318 117.847 168.318C119.316 168.318 120.612 168.686 121.733 169.42C122.854 170.155 123.729 171.197 124.358 172.545C124.987 173.894 125.301 175.485 125.301 177.318C125.301 179.167 124.987 180.769 124.358 182.125C123.729 183.473 122.858 184.519 121.744 185.261C120.631 185.996 119.347 186.364 117.892 186.364C116.771 186.364 115.873 186.178 115.199 185.807C114.525 185.428 114.006 185 113.642 184.523C113.278 184.038 112.998 183.636 112.801 183.318H112.574V192.545H109.892ZM112.528 177.273C112.528 178.591 112.722 179.754 113.108 180.761C113.494 181.761 114.059 182.545 114.801 183.114C115.544 183.674 116.453 183.955 117.528 183.955C118.65 183.955 119.585 183.659 120.335 183.068C121.093 182.47 121.661 181.667 122.04 180.659C122.426 179.644 122.619 178.515 122.619 177.273C122.619 176.045 122.43 174.939 122.051 173.955C121.68 172.962 121.116 172.178 120.358 171.602C119.608 171.019 118.665 170.727 117.528 170.727C116.438 170.727 115.521 171.004 114.778 171.557C114.036 172.102 113.475 172.867 113.097 173.852C112.718 174.83 112.528 175.97 112.528 177.273ZM145.483 186.364C143.907 186.364 142.525 185.989 141.335 185.239C140.153 184.489 139.229 183.439 138.562 182.091C137.903 180.742 137.574 179.167 137.574 177.364C137.574 175.545 137.903 173.958 138.562 172.602C139.229 171.246 140.153 170.193 141.335 169.443C142.525 168.693 143.907 168.318 145.483 168.318C147.059 168.318 148.438 168.693 149.619 169.443C150.809 170.193 151.733 171.246 152.392 172.602C153.059 173.958 153.392 175.545 153.392 177.364C153.392 179.167 153.059 180.742 152.392 182.091C151.733 183.439 150.809 184.489 149.619 185.239C148.438 185.989 147.059 186.364 145.483 186.364ZM145.483 183.955C146.68 183.955 147.665 183.648 148.438 183.034C149.21 182.42 149.782 181.614 150.153 180.614C150.525 179.614 150.71 178.53 150.71 177.364C150.71 176.197 150.525 175.11 150.153 174.102C149.782 173.095 149.21 172.28 148.438 171.659C147.665 171.038 146.68 170.727 145.483 170.727C144.286 170.727 143.301 171.038 142.528 171.659C141.756 172.28 141.184 173.095 140.812 174.102C140.441 175.11 140.256 176.197 140.256 177.364C140.256 178.53 140.441 179.614 140.812 180.614C141.184 181.614 141.756 182.42 142.528 183.034C143.301 183.648 144.286 183.955 145.483 183.955ZM157.486 192.545V168.545H160.077V171.318H160.395C160.592 171.015 160.865 170.629 161.213 170.159C161.569 169.682 162.077 169.258 162.736 168.886C163.402 168.508 164.304 168.318 165.44 168.318C166.91 168.318 168.205 168.686 169.327 169.42C170.448 170.155 171.323 171.197 171.952 172.545C172.58 173.894 172.895 175.485 172.895 177.318C172.895 179.167 172.58 180.769 171.952 182.125C171.323 183.473 170.452 184.519 169.338 185.261C168.224 185.996 166.94 186.364 165.486 186.364C164.365 186.364 163.467 186.178 162.793 185.807C162.118 185.428 161.599 185 161.236 184.523C160.872 184.038 160.592 183.636 160.395 183.318H160.168V192.545H157.486ZM160.122 177.273C160.122 178.591 160.315 179.754 160.702 180.761C161.088 181.761 161.652 182.545 162.395 183.114C163.137 183.674 164.046 183.955 165.122 183.955C166.243 183.955 167.179 183.659 167.929 183.068C168.687 182.47 169.255 181.667 169.634 180.659C170.02 179.644 170.213 178.515 170.213 177.273C170.213 176.045 170.024 174.939 169.645 173.955C169.274 172.962 168.709 172.178 167.952 171.602C167.202 171.019 166.259 170.727 165.122 170.727C164.031 170.727 163.115 171.004 162.372 171.557C161.63 172.102 161.069 172.867 160.69 173.852C160.312 174.83 160.122 175.97 160.122 177.273ZM184.304 186.364C182.622 186.364 181.171 185.992 179.952 185.25C178.74 184.5 177.804 183.455 177.145 182.114C176.493 180.765 176.168 179.197 176.168 177.409C176.168 175.621 176.493 174.045 177.145 172.682C177.804 171.311 178.721 170.242 179.895 169.477C181.077 168.705 182.455 168.318 184.031 168.318C184.94 168.318 185.838 168.47 186.724 168.773C187.611 169.076 188.418 169.568 189.145 170.25C189.872 170.924 190.452 171.818 190.884 172.932C191.315 174.045 191.531 175.417 191.531 177.045V178.182H178.077V175.864H188.804C188.804 174.879 188.607 174 188.213 173.227C187.827 172.455 187.274 171.845 186.554 171.398C185.842 170.951 185.001 170.727 184.031 170.727C182.963 170.727 182.039 170.992 181.259 171.523C180.486 172.045 179.891 172.727 179.474 173.568C179.058 174.409 178.849 175.311 178.849 176.273V177.818C178.849 179.136 179.077 180.254 179.531 181.17C179.993 182.08 180.634 182.773 181.452 183.25C182.27 183.72 183.221 183.955 184.304 183.955C185.009 183.955 185.645 183.856 186.213 183.659C186.789 183.455 187.285 183.152 187.702 182.75C188.118 182.341 188.44 181.833 188.668 181.227L191.259 181.955C190.986 182.833 190.527 183.606 189.884 184.273C189.24 184.932 188.444 185.447 187.497 185.818C186.55 186.182 185.486 186.364 184.304 186.364ZM198.293 175.5V186H195.611V168.545H198.202V171.273H198.429C198.838 170.386 199.459 169.674 200.293 169.136C201.126 168.591 202.202 168.318 203.52 168.318C204.702 168.318 205.736 168.561 206.622 169.045C207.509 169.523 208.198 170.25 208.69 171.227C209.183 172.197 209.429 173.424 209.429 174.909V186H206.747V175.091C206.747 173.72 206.391 172.652 205.679 171.886C204.967 171.114 203.99 170.727 202.747 170.727C201.891 170.727 201.126 170.913 200.452 171.284C199.785 171.655 199.259 172.197 198.872 172.909C198.486 173.621 198.293 174.485 198.293 175.5ZM226.011 175.5V186H223.33V162.727H226.011V171.273H226.239C226.648 170.371 227.261 169.655 228.08 169.125C228.905 168.587 230.004 168.318 231.375 168.318C232.564 168.318 233.606 168.557 234.5 169.034C235.394 169.504 236.087 170.227 236.58 171.205C237.08 172.174 237.33 173.409 237.33 174.909V186H234.648V175.091C234.648 173.705 234.288 172.633 233.568 171.875C232.856 171.11 231.867 170.727 230.602 170.727C229.723 170.727 228.936 170.913 228.239 171.284C227.549 171.655 227.004 172.197 226.602 172.909C226.208 173.621 226.011 174.485 226.011 175.5ZM249.554 186.364C247.872 186.364 246.421 185.992 245.202 185.25C243.99 184.5 243.054 183.455 242.395 182.114C241.743 180.765 241.418 179.197 241.418 177.409C241.418 175.621 241.743 174.045 242.395 172.682C243.054 171.311 243.971 170.242 245.145 169.477C246.327 168.705 247.705 168.318 249.281 168.318C250.19 168.318 251.088 168.47 251.974 168.773C252.861 169.076 253.668 169.568 254.395 170.25C255.122 170.924 255.702 171.818 256.134 172.932C256.565 174.045 256.781 175.417 256.781 177.045V178.182H243.327V175.864H254.054C254.054 174.879 253.857 174 253.463 173.227C253.077 172.455 252.524 171.845 251.804 171.398C251.092 170.951 250.251 170.727 249.281 170.727C248.213 170.727 247.289 170.992 246.509 171.523C245.736 172.045 245.141 172.727 244.724 173.568C244.308 174.409 244.099 175.311 244.099 176.273V177.818C244.099 179.136 244.327 180.254 244.781 181.17C245.243 182.08 245.884 182.773 246.702 183.25C247.52 183.72 248.471 183.955 249.554 183.955C250.259 183.955 250.895 183.856 251.463 183.659C252.039 183.455 252.535 183.152 252.952 182.75C253.368 182.341 253.69 181.833 253.918 181.227L256.509 181.955C256.236 182.833 255.777 183.606 255.134 184.273C254.49 184.932 253.694 185.447 252.747 185.818C251.8 186.182 250.736 186.364 249.554 186.364ZM260.861 186V168.545H263.452V171.182H263.634C263.952 170.318 264.527 169.617 265.361 169.08C266.194 168.542 267.134 168.273 268.179 168.273C268.376 168.273 268.622 168.277 268.918 168.284C269.213 168.292 269.437 168.303 269.588 168.318V171.045C269.497 171.023 269.289 170.989 268.963 170.943C268.645 170.89 268.308 170.864 267.952 170.864C267.103 170.864 266.346 171.042 265.679 171.398C265.02 171.746 264.497 172.231 264.111 172.852C263.732 173.466 263.543 174.167 263.543 174.955V186H260.861ZM279.554 186.364C277.872 186.364 276.421 185.992 275.202 185.25C273.99 184.5 273.054 183.455 272.395 182.114C271.743 180.765 271.418 179.197 271.418 177.409C271.418 175.621 271.743 174.045 272.395 172.682C273.054 171.311 273.971 170.242 275.145 169.477C276.327 168.705 277.705 168.318 279.281 168.318C280.19 168.318 281.088 168.47 281.974 168.773C282.861 169.076 283.668 169.568 284.395 170.25C285.122 170.924 285.702 171.818 286.134 172.932C286.565 174.045 286.781 175.417 286.781 177.045V178.182H273.327V175.864H284.054C284.054 174.879 283.857 174 283.463 173.227C283.077 172.455 282.524 171.845 281.804 171.398C281.092 170.951 280.251 170.727 279.281 170.727C278.213 170.727 277.289 170.992 276.509 171.523C275.736 172.045 275.141 172.727 274.724 173.568C274.308 174.409 274.099 175.311 274.099 176.273V177.818C274.099 179.136 274.327 180.254 274.781 181.17C275.243 182.08 275.884 182.773 276.702 183.25C277.52 183.72 278.471 183.955 279.554 183.955C280.259 183.955 280.895 183.856 281.463 183.659C282.039 183.455 282.535 183.152 282.952 182.75C283.368 182.341 283.69 181.833 283.918 181.227L286.509 181.955C286.236 182.833 285.777 183.606 285.134 184.273C284.49 184.932 283.694 185.447 282.747 185.818C281.8 186.182 280.736 186.364 279.554 186.364ZM303.406 162.727L303.179 179.455H300.543L300.315 162.727H303.406ZM301.861 186.182C301.3 186.182 300.819 185.981 300.418 185.58C300.016 185.178 299.815 184.697 299.815 184.136C299.815 183.576 300.016 183.095 300.418 182.693C300.819 182.292 301.3 182.091 301.861 182.091C302.421 182.091 302.902 182.292 303.304 182.693C303.705 183.095 303.906 183.576 303.906 184.136C303.906 184.508 303.812 184.848 303.622 185.159C303.44 185.47 303.194 185.72 302.884 185.909C302.58 186.091 302.24 186.182 301.861 186.182Z"
    fill="#333333" />
  <line x1="222" y1="194.5" x2="287" y2="194.5" stroke="#333333" stroke-width="3" stroke-dasharray="6 6" />
  <path d="M253 150L225.287 102L280.713 102L253 150Z" fill="white" />
  <path
    d="M141 72C141 67.5817 144.582 64 149 64H358C362.418 64 366 67.5817 366 72V127C366 131.418 362.418 135 358 135H149C144.582 135 141 131.418 141 127V72Z"
    fill="white" />
  <path
    d="M204.499 110.364C202.862 110.364 201.453 109.977 200.271 109.205C199.089 108.432 198.18 107.367 197.544 106.011C196.908 104.655 196.589 103.106 196.589 101.364C196.589 99.5909 196.915 98.0265 197.567 96.6705C198.226 95.3068 199.143 94.2424 200.317 93.4773C201.499 92.7045 202.877 92.3182 204.453 92.3182C205.68 92.3182 206.786 92.5455 207.771 93C208.756 93.4545 209.563 94.0909 210.192 94.9091C210.821 95.7273 211.211 96.6818 211.362 97.7727H208.68C208.476 96.9773 208.021 96.2727 207.317 95.6591C206.62 95.0379 205.68 94.7273 204.499 94.7273C203.453 94.7273 202.536 95 201.749 95.5455C200.968 96.0833 200.358 96.8447 199.919 97.8295C199.487 98.8068 199.271 99.9545 199.271 101.273C199.271 102.621 199.483 103.795 199.908 104.795C200.339 105.795 200.946 106.572 201.726 107.125C202.514 107.678 203.438 107.955 204.499 107.955C205.196 107.955 205.828 107.833 206.396 107.591C206.964 107.348 207.446 107 207.839 106.545C208.233 106.091 208.514 105.545 208.68 104.909H211.362C211.211 105.939 210.836 106.867 210.237 107.693C209.646 108.511 208.862 109.163 207.885 109.648C206.915 110.125 205.786 110.364 204.499 110.364ZM222.374 110.364C220.798 110.364 219.415 109.989 218.226 109.239C217.044 108.489 216.12 107.439 215.453 106.091C214.794 104.742 214.464 103.167 214.464 101.364C214.464 99.5455 214.794 97.9583 215.453 96.6023C216.12 95.2462 217.044 94.1932 218.226 93.4432C219.415 92.6932 220.798 92.3182 222.374 92.3182C223.949 92.3182 225.328 92.6932 226.51 93.4432C227.699 94.1932 228.624 95.2462 229.283 96.6023C229.949 97.9583 230.283 99.5455 230.283 101.364C230.283 103.167 229.949 104.742 229.283 106.091C228.624 107.439 227.699 108.489 226.51 109.239C225.328 109.989 223.949 110.364 222.374 110.364ZM222.374 107.955C223.571 107.955 224.555 107.648 225.328 107.034C226.101 106.42 226.673 105.614 227.044 104.614C227.415 103.614 227.601 102.53 227.601 101.364C227.601 100.197 227.415 99.1098 227.044 98.1023C226.673 97.0947 226.101 96.2803 225.328 95.6591C224.555 95.0379 223.571 94.7273 222.374 94.7273C221.177 94.7273 220.192 95.0379 219.419 95.6591C218.646 96.2803 218.074 97.0947 217.703 98.1023C217.332 99.1098 217.146 100.197 217.146 101.364C217.146 102.53 217.332 103.614 217.703 104.614C218.074 105.614 218.646 106.42 219.419 107.034C220.192 107.648 221.177 107.955 222.374 107.955ZM237.058 99.5V110H234.376V92.5455H236.967V95.2727H237.195C237.604 94.3864 238.225 93.6742 239.058 93.1364C239.892 92.5909 240.967 92.3182 242.286 92.3182C243.467 92.3182 244.501 92.5606 245.388 93.0455C246.274 93.5227 246.964 94.25 247.456 95.2273C247.948 96.197 248.195 97.4242 248.195 98.9091V110H245.513V99.0909C245.513 97.7197 245.157 96.6515 244.445 95.8864C243.732 95.1136 242.755 94.7273 241.513 94.7273C240.657 94.7273 239.892 94.9129 239.217 95.2841C238.551 95.6553 238.024 96.197 237.638 96.9091C237.251 97.6212 237.058 98.4848 237.058 99.5ZM260.686 92.5455V94.8182H251.641V92.5455H260.686ZM254.277 88.3636H256.959V105C256.959 105.758 257.069 106.326 257.288 106.705C257.516 107.076 257.804 107.326 258.152 107.455C258.508 107.576 258.883 107.636 259.277 107.636C259.572 107.636 259.815 107.621 260.004 107.591C260.194 107.553 260.345 107.523 260.459 107.5L261.004 109.909C260.822 109.977 260.569 110.045 260.243 110.114C259.917 110.189 259.504 110.227 259.004 110.227C258.247 110.227 257.504 110.064 256.777 109.739C256.057 109.413 255.459 108.917 254.982 108.25C254.512 107.583 254.277 106.742 254.277 105.727V88.3636ZM271.851 110.364C270.169 110.364 268.718 109.992 267.499 109.25C266.286 108.5 265.351 107.455 264.692 106.114C264.04 104.765 263.714 103.197 263.714 101.409C263.714 99.6212 264.04 98.0455 264.692 96.6818C265.351 95.3106 266.268 94.2424 267.442 93.4773C268.624 92.7045 270.002 92.3182 271.578 92.3182C272.487 92.3182 273.385 92.4697 274.271 92.7727C275.158 93.0758 275.964 93.5682 276.692 94.25C277.419 94.9242 277.999 95.8182 278.43 96.9318C278.862 98.0455 279.078 99.4167 279.078 101.045V102.182H265.624V99.8636H276.351C276.351 98.8788 276.154 98 275.76 97.2273C275.374 96.4545 274.821 95.8447 274.101 95.3977C273.389 94.9508 272.548 94.7273 271.578 94.7273C270.51 94.7273 269.586 94.9924 268.805 95.5227C268.033 96.0455 267.438 96.7273 267.021 97.5682C266.605 98.4091 266.396 99.3106 266.396 100.273V101.818C266.396 103.136 266.624 104.254 267.078 105.17C267.54 106.08 268.18 106.773 268.999 107.25C269.817 107.72 270.768 107.955 271.851 107.955C272.555 107.955 273.192 107.856 273.76 107.659C274.336 107.455 274.832 107.152 275.249 106.75C275.665 106.341 275.987 105.833 276.214 105.227L278.805 105.955C278.533 106.833 278.074 107.606 277.43 108.273C276.786 108.932 275.991 109.447 275.044 109.818C274.097 110.182 273.033 110.364 271.851 110.364ZM285.839 99.5V110H283.158V92.5455H285.749V95.2727H285.976C286.385 94.3864 287.006 93.6742 287.839 93.1364C288.673 92.5909 289.749 92.3182 291.067 92.3182C292.249 92.3182 293.283 92.5606 294.169 93.0455C295.055 93.5227 295.745 94.25 296.237 95.2273C296.73 96.197 296.976 97.4242 296.976 98.9091V110H294.294V99.0909C294.294 97.7197 293.938 96.6515 293.226 95.8864C292.514 95.1136 291.536 94.7273 290.294 94.7273C289.438 94.7273 288.673 94.9129 287.999 95.2841C287.332 95.6553 286.805 96.197 286.419 96.9091C286.033 97.6212 285.839 98.4848 285.839 99.5ZM309.467 92.5455V94.8182H300.422V92.5455H309.467ZM303.058 88.3636H305.74V105C305.74 105.758 305.85 106.326 306.07 106.705C306.297 107.076 306.585 107.326 306.933 107.455C307.289 107.576 307.664 107.636 308.058 107.636C308.354 107.636 308.596 107.621 308.786 107.591C308.975 107.553 309.126 107.523 309.24 107.5L309.786 109.909C309.604 109.977 309.35 110.045 309.024 110.114C308.698 110.189 308.286 110.227 307.786 110.227C307.028 110.227 306.286 110.064 305.558 109.739C304.839 109.413 304.24 108.917 303.763 108.25C303.293 107.583 303.058 106.742 303.058 105.727V88.3636Z"
    fill="#333333" />
  <path
    d="M420.795 176.663V174.455H432.401V176.663H427.905V189H425.291V176.663H420.795ZM433.391 189V178.091H435.884V179.909H435.998C436.197 179.279 436.538 178.794 437.021 178.453C437.508 178.107 438.065 177.935 438.69 177.935C438.832 177.935 438.99 177.942 439.165 177.956C439.345 177.965 439.495 177.982 439.613 178.006V180.371C439.504 180.333 439.331 180.3 439.094 180.271C438.862 180.238 438.638 180.222 438.42 180.222C437.951 180.222 437.53 180.323 437.156 180.527C436.786 180.726 436.495 181.003 436.282 181.358C436.069 181.713 435.962 182.123 435.962 182.587V189H433.391ZM441.321 189V178.091H443.892V189H441.321ZM442.614 176.543C442.206 176.543 441.856 176.408 441.562 176.138C441.269 175.863 441.122 175.534 441.122 175.151C441.122 174.762 441.269 174.433 441.562 174.163C441.856 173.889 442.206 173.751 442.614 173.751C443.026 173.751 443.376 173.889 443.665 174.163C443.958 174.433 444.105 174.762 444.105 175.151C444.105 175.534 443.958 175.863 443.665 176.138C443.376 176.408 443.026 176.543 442.614 176.543ZM451.28 193.318C450.357 193.318 449.564 193.193 448.901 192.942C448.238 192.696 447.705 192.364 447.303 191.947C446.9 191.531 446.621 191.069 446.465 190.562L448.78 190.001C448.884 190.214 449.036 190.425 449.235 190.634C449.434 190.847 449.701 191.022 450.037 191.159C450.378 191.301 450.807 191.372 451.323 191.372C452.052 191.372 452.656 191.195 453.134 190.839C453.612 190.489 453.851 189.911 453.851 189.107V187.04H453.723C453.591 187.305 453.397 187.577 453.141 187.857C452.89 188.136 452.556 188.37 452.14 188.56C451.728 188.749 451.209 188.844 450.584 188.844C449.746 188.844 448.986 188.647 448.304 188.254C447.627 187.857 447.087 187.265 446.685 186.479C446.287 185.688 446.088 184.698 446.088 183.51C446.088 182.312 446.287 181.301 446.685 180.477C447.087 179.649 447.63 179.021 448.311 178.595C448.993 178.164 449.753 177.949 450.591 177.949C451.23 177.949 451.756 178.058 452.168 178.276C452.585 178.489 452.916 178.747 453.162 179.05C453.408 179.348 453.596 179.63 453.723 179.895H453.865V178.091H456.401V189.178C456.401 190.11 456.178 190.882 455.733 191.493C455.288 192.104 454.68 192.561 453.908 192.864C453.136 193.167 452.26 193.318 451.28 193.318ZM451.301 186.827C451.846 186.827 452.31 186.694 452.694 186.429C453.077 186.164 453.368 185.783 453.567 185.286C453.766 184.788 453.865 184.192 453.865 183.496C453.865 182.809 453.766 182.208 453.567 181.692C453.373 181.176 453.084 180.776 452.701 180.491C452.322 180.203 451.855 180.058 451.301 180.058C450.729 180.058 450.25 180.207 449.867 180.506C449.483 180.804 449.194 181.214 449 181.734C448.806 182.25 448.709 182.838 448.709 183.496C448.709 184.163 448.806 184.748 449 185.25C449.199 185.747 449.49 186.135 449.874 186.415C450.262 186.689 450.738 186.827 451.301 186.827ZM463.78 193.318C462.857 193.318 462.064 193.193 461.401 192.942C460.738 192.696 460.205 192.364 459.803 191.947C459.4 191.531 459.121 191.069 458.965 190.562L461.28 190.001C461.384 190.214 461.536 190.425 461.735 190.634C461.934 190.847 462.201 191.022 462.537 191.159C462.878 191.301 463.307 191.372 463.823 191.372C464.552 191.372 465.156 191.195 465.634 190.839C466.112 190.489 466.351 189.911 466.351 189.107V187.04H466.223C466.091 187.305 465.897 187.577 465.641 187.857C465.39 188.136 465.056 188.37 464.64 188.56C464.228 188.749 463.709 188.844 463.084 188.844C462.246 188.844 461.486 188.647 460.804 188.254C460.127 187.857 459.587 187.265 459.185 186.479C458.787 185.688 458.588 184.698 458.588 183.51C458.588 182.312 458.787 181.301 459.185 180.477C459.587 179.649 460.13 179.021 460.811 178.595C461.493 178.164 462.253 177.949 463.091 177.949C463.73 177.949 464.256 178.058 464.668 178.276C465.085 178.489 465.416 178.747 465.662 179.05C465.908 179.348 466.096 179.63 466.223 179.895H466.365V178.091H468.901V189.178C468.901 190.11 468.678 190.882 468.233 191.493C467.788 192.104 467.18 192.561 466.408 192.864C465.636 193.167 464.76 193.318 463.78 193.318ZM463.801 186.827C464.346 186.827 464.81 186.694 465.194 186.429C465.577 186.164 465.868 185.783 466.067 185.286C466.266 184.788 466.365 184.192 466.365 183.496C466.365 182.809 466.266 182.208 466.067 181.692C465.873 181.176 465.584 180.776 465.201 180.491C464.822 180.203 464.355 180.058 463.801 180.058C463.229 180.058 462.75 180.207 462.367 180.506C461.983 180.804 461.694 181.214 461.5 181.734C461.306 182.25 461.209 182.838 461.209 183.496C461.209 184.163 461.306 184.748 461.5 185.25C461.699 185.747 461.99 186.135 462.374 186.415C462.762 186.689 463.238 186.827 463.801 186.827ZM476.365 189.213C475.272 189.213 474.327 188.986 473.532 188.531C472.741 188.072 472.132 187.423 471.706 186.585C471.28 185.742 471.067 184.75 471.067 183.609C471.067 182.487 471.28 181.502 471.706 180.655C472.137 179.803 472.739 179.14 473.51 178.666C474.282 178.188 475.189 177.949 476.23 177.949C476.903 177.949 477.537 178.058 478.134 178.276C478.735 178.489 479.266 178.82 479.725 179.27C480.189 179.72 480.553 180.293 480.819 180.989C481.084 181.68 481.216 182.504 481.216 183.46V184.249H472.275V182.516H478.752C478.747 182.023 478.641 181.585 478.432 181.202C478.224 180.813 477.933 180.508 477.559 180.286C477.189 180.063 476.758 179.952 476.266 179.952C475.74 179.952 475.279 180.08 474.881 180.335C474.483 180.586 474.173 180.918 473.951 181.33C473.733 181.737 473.622 182.184 473.617 182.672V184.185C473.617 184.819 473.733 185.364 473.965 185.818C474.197 186.268 474.521 186.614 474.938 186.855C475.355 187.092 475.842 187.21 476.401 187.21C476.775 187.21 477.114 187.158 477.417 187.054C477.72 186.945 477.982 186.786 478.205 186.578C478.427 186.37 478.596 186.112 478.709 185.804L481.11 186.074C480.958 186.708 480.669 187.262 480.243 187.736C479.822 188.205 479.282 188.569 478.624 188.83C477.966 189.085 477.213 189.213 476.365 189.213ZM483.391 189V178.091H485.884V179.909H485.998C486.197 179.279 486.538 178.794 487.021 178.453C487.508 178.107 488.065 177.935 488.69 177.935C488.832 177.935 488.99 177.942 489.165 177.956C489.345 177.965 489.495 177.982 489.613 178.006V180.371C489.504 180.333 489.331 180.3 489.094 180.271C488.862 180.238 488.638 180.222 488.42 180.222C487.951 180.222 487.53 180.323 487.156 180.527C486.786 180.726 486.495 181.003 486.282 181.358C486.069 181.713 485.962 182.123 485.962 182.587V189H483.391ZM496.396 189V174.455H505.856V176.663H499.031V180.612H505.366V182.821H499.031V186.791H505.913V189H496.396ZM511.001 174.455V189H508.43V174.455H511.001ZM518.475 189.213C517.381 189.213 516.436 188.986 515.641 188.531C514.85 188.072 514.242 187.423 513.816 186.585C513.39 185.742 513.176 184.75 513.176 183.609C513.176 182.487 513.39 181.502 513.816 180.655C514.247 179.803 514.848 179.14 515.62 178.666C516.391 178.188 517.298 177.949 518.34 177.949C519.012 177.949 519.647 178.058 520.243 178.276C520.845 178.489 521.375 178.82 521.834 179.27C522.298 179.72 522.663 180.293 522.928 180.989C523.193 181.68 523.326 182.504 523.326 183.46V184.249H514.384V182.516H520.861C520.856 182.023 520.75 181.585 520.542 181.202C520.333 180.813 520.042 180.508 519.668 180.286C519.299 180.063 518.868 179.952 518.375 179.952C517.85 179.952 517.388 180.08 516.99 180.335C516.593 180.586 516.283 180.918 516.06 181.33C515.842 181.737 515.731 182.184 515.726 182.672V184.185C515.726 184.819 515.842 185.364 516.074 185.818C516.306 186.268 516.631 186.614 517.047 186.855C517.464 187.092 517.952 187.21 518.51 187.21C518.884 187.21 519.223 187.158 519.526 187.054C519.829 186.945 520.092 186.786 520.314 186.578C520.537 186.37 520.705 186.112 520.819 185.804L523.219 186.074C523.068 186.708 522.779 187.262 522.353 187.736C521.931 188.205 521.391 188.569 520.733 188.83C520.075 189.085 519.322 189.213 518.475 189.213ZM525.501 189V178.091H527.958V179.945H528.086C528.313 179.32 528.69 178.832 529.215 178.482C529.741 178.126 530.368 177.949 531.097 177.949C531.836 177.949 532.459 178.129 532.965 178.489C533.477 178.844 533.836 179.329 534.045 179.945H534.158C534.4 179.339 534.807 178.856 535.38 178.496C535.958 178.131 536.642 177.949 537.433 177.949C538.436 177.949 539.255 178.266 539.89 178.901C540.524 179.535 540.842 180.461 540.842 181.678V189H538.263V182.075C538.263 181.398 538.084 180.903 537.724 180.591C537.364 180.274 536.924 180.115 536.403 180.115C535.782 180.115 535.297 180.309 534.947 180.697C534.601 181.081 534.428 181.58 534.428 182.196V189H531.907V181.969C531.907 181.405 531.737 180.955 531.396 180.619C531.059 180.283 530.619 180.115 530.075 180.115C529.705 180.115 529.369 180.21 529.066 180.399C528.763 180.584 528.522 180.847 528.342 181.188C528.162 181.524 528.072 181.917 528.072 182.366V189H525.501ZM548.279 189.213C547.186 189.213 546.241 188.986 545.446 188.531C544.655 188.072 544.047 187.423 543.62 186.585C543.194 185.742 542.981 184.75 542.981 183.609C542.981 182.487 543.194 181.502 543.62 180.655C544.051 179.803 544.653 179.14 545.424 178.666C546.196 178.188 547.103 177.949 548.145 177.949C548.817 177.949 549.451 178.058 550.048 178.276C550.649 178.489 551.18 178.82 551.639 179.27C552.103 179.72 552.467 180.293 552.733 180.989C552.998 181.68 553.13 182.504 553.13 183.46V184.249H544.189V182.516H550.666C550.661 182.023 550.555 181.585 550.346 181.202C550.138 180.813 549.847 180.508 549.473 180.286C549.103 180.063 548.672 179.952 548.18 179.952C547.654 179.952 547.193 180.08 546.795 180.335C546.397 180.586 546.087 180.918 545.865 181.33C545.647 181.737 545.536 182.184 545.531 182.672V184.185C545.531 184.819 545.647 185.364 545.879 185.818C546.111 186.268 546.435 186.614 546.852 186.855C547.269 187.092 547.756 187.21 548.315 187.21C548.689 187.21 549.028 187.158 549.331 187.054C549.634 186.945 549.896 186.786 550.119 186.578C550.342 186.37 550.51 186.112 550.623 185.804L553.024 186.074C552.872 186.708 552.583 187.262 552.157 187.736C551.736 188.205 551.196 188.569 550.538 188.83C549.88 189.085 549.127 189.213 548.279 189.213ZM557.876 182.608V189H555.305V178.091H557.763V179.945H557.891C558.142 179.334 558.542 178.848 559.091 178.489C559.645 178.129 560.329 177.949 561.143 177.949C561.896 177.949 562.552 178.11 563.111 178.432C563.674 178.754 564.11 179.22 564.418 179.831C564.73 180.442 564.884 181.183 564.879 182.054V189H562.308V182.452C562.308 181.723 562.119 181.152 561.74 180.74C561.366 180.328 560.848 180.122 560.185 180.122C559.735 180.122 559.335 180.222 558.984 180.42C558.639 180.615 558.366 180.896 558.168 181.266C557.973 181.635 557.876 182.082 557.876 182.608ZM572.94 178.091V180.08H566.669V178.091H572.94ZM568.217 175.477H570.788V185.719C570.788 186.064 570.84 186.33 570.945 186.514C571.054 186.694 571.196 186.817 571.371 186.884C571.546 186.95 571.74 186.983 571.953 186.983C572.114 186.983 572.261 186.971 572.393 186.947C572.531 186.924 572.635 186.902 572.706 186.884L573.139 188.893C573.002 188.941 572.805 188.993 572.55 189.05C572.299 189.107 571.991 189.14 571.626 189.149C570.982 189.168 570.402 189.071 569.886 188.858C569.37 188.64 568.961 188.304 568.658 187.849C568.359 187.395 568.213 186.827 568.217 186.145V175.477Z"
    fill="#066EBA" />
  <path
    d="M413.5 183C414.328 183 415 182.328 415 181.5C415 180.672 414.328 180 413.5 180V183ZM295 183H413.5V180H295V183Z"
    fill="#066EBA" />
  <path
    d="M420.795 89.6634V87.4545H432.401V89.6634H427.905V102H425.291V89.6634H420.795ZM437.701 102.213C436.635 102.213 435.712 101.979 434.931 101.51C434.15 101.041 433.543 100.385 433.113 99.5426C432.686 98.6998 432.473 97.715 432.473 96.5881C432.473 95.4612 432.686 94.474 433.113 93.6264C433.543 92.7789 434.15 92.1207 434.931 91.652C435.712 91.1832 436.635 90.9489 437.701 90.9489C438.766 90.9489 439.689 91.1832 440.471 91.652C441.252 92.1207 441.855 92.7789 442.282 93.6264C442.712 94.474 442.928 95.4612 442.928 96.5881C442.928 97.715 442.712 98.6998 442.282 99.5426C441.855 100.385 441.252 101.041 440.471 101.51C439.689 101.979 438.766 102.213 437.701 102.213ZM437.715 100.153C438.292 100.153 438.775 99.9948 439.164 99.6776C439.552 99.3556 439.841 98.9247 440.03 98.3849C440.224 97.8452 440.321 97.2438 440.321 96.581C440.321 95.9134 440.224 95.3097 440.03 94.7699C439.841 94.2254 439.552 93.7921 439.164 93.4702C438.775 93.1482 438.292 92.9872 437.715 92.9872C437.123 92.9872 436.631 93.1482 436.238 93.4702C435.849 93.7921 435.558 94.2254 435.364 94.7699C435.175 95.3097 435.08 95.9134 435.08 96.581C435.08 97.2438 435.175 97.8452 435.364 98.3849C435.558 98.9247 435.849 99.3556 436.238 99.6776C436.631 99.9948 437.123 100.153 437.715 100.153ZM449.869 102.213C448.803 102.213 447.88 101.979 447.099 101.51C446.317 101.041 445.711 100.385 445.281 99.5426C444.854 98.6998 444.641 97.715 444.641 96.5881C444.641 95.4612 444.854 94.474 445.281 93.6264C445.711 92.7789 446.317 92.1207 447.099 91.652C447.88 91.1832 448.803 90.9489 449.869 90.9489C450.934 90.9489 451.857 91.1832 452.638 91.652C453.42 92.1207 454.023 92.7789 454.45 93.6264C454.88 94.474 455.096 95.4612 455.096 96.5881C455.096 97.715 454.88 98.6998 454.45 99.5426C454.023 100.385 453.42 101.041 452.638 101.51C451.857 101.979 450.934 102.213 449.869 102.213ZM449.883 100.153C450.46 100.153 450.943 99.9948 451.332 99.6776C451.72 99.3556 452.009 98.9247 452.198 98.3849C452.392 97.8452 452.489 97.2438 452.489 96.581C452.489 95.9134 452.392 95.3097 452.198 94.7699C452.009 94.2254 451.72 93.7921 451.332 93.4702C450.943 93.1482 450.46 92.9872 449.883 92.9872C449.291 92.9872 448.799 93.1482 448.406 93.4702C448.017 93.7921 447.726 94.2254 447.532 94.7699C447.343 95.3097 447.248 95.9134 447.248 96.581C447.248 97.2438 447.343 97.8452 447.532 98.3849C447.726 98.9247 448.017 99.3556 448.406 99.6776C448.799 99.9948 449.291 100.153 449.883 100.153ZM459.849 87.4545V102H457.278V87.4545H459.849ZM467.94 91.0909V93.0795H461.669V91.0909H467.94ZM463.217 88.4773H465.788V98.7188C465.788 99.0644 465.84 99.3295 465.945 99.5142C466.054 99.6941 466.196 99.8172 466.371 99.8835C466.546 99.9498 466.74 99.983 466.953 99.983C467.114 99.983 467.261 99.9711 467.393 99.9474C467.531 99.9238 467.635 99.9025 467.706 99.8835L468.139 101.893C468.002 101.941 467.805 101.993 467.55 102.05C467.299 102.107 466.991 102.14 466.626 102.149C465.982 102.168 465.402 102.071 464.886 101.858C464.37 101.64 463.961 101.304 463.658 100.849C463.359 100.395 463.213 99.8267 463.217 99.1449V88.4773ZM470.091 102V91.0909H472.662V102H470.091ZM471.383 89.5426C470.976 89.5426 470.626 89.4077 470.332 89.1378C470.038 88.8632 469.892 88.5341 469.892 88.1506C469.892 87.7623 470.038 87.4332 470.332 87.1634C470.626 86.8887 470.976 86.7514 471.383 86.7514C471.795 86.7514 472.145 86.8887 472.434 87.1634C472.728 87.4332 472.875 87.7623 472.875 88.1506C472.875 88.5341 472.728 88.8632 472.434 89.1378C472.145 89.4077 471.795 89.5426 471.383 89.5426ZM475.305 106.091V91.0909H477.834V92.8949H477.983C478.116 92.6297 478.303 92.348 478.544 92.0497C478.786 91.7467 479.112 91.4886 479.524 91.2756C479.936 91.0578 480.462 90.9489 481.101 90.9489C481.944 90.9489 482.704 91.1643 483.381 91.5952C484.063 92.0213 484.602 92.6534 485 93.4915C485.402 94.3248 485.604 95.3475 485.604 96.5597C485.604 97.7576 485.407 98.7756 485.014 99.6136C484.621 100.452 484.086 101.091 483.409 101.531C482.732 101.972 481.965 102.192 481.108 102.192C480.483 102.192 479.964 102.088 479.553 101.879C479.141 101.671 478.809 101.42 478.558 101.126C478.312 100.828 478.12 100.546 477.983 100.281H477.876V106.091H475.305ZM477.827 96.5455C477.827 97.2509 477.926 97.8688 478.125 98.3991C478.329 98.9295 478.62 99.3437 478.999 99.642C479.382 99.9356 479.846 100.082 480.391 100.082C480.959 100.082 481.435 99.9309 481.818 99.6278C482.202 99.3201 482.491 98.901 482.685 98.3707C482.884 97.8357 482.983 97.2273 482.983 96.5455C482.983 95.8684 482.886 95.267 482.692 94.7415C482.498 94.2159 482.209 93.804 481.825 93.5057C481.442 93.2074 480.964 93.0582 480.391 93.0582C479.841 93.0582 479.375 93.2027 478.991 93.4915C478.608 93.7803 478.317 94.1851 478.118 94.706C477.924 95.2268 477.827 95.84 477.827 96.5455Z"
    fill="#40BA06" />
  <path d="M414 96C414.828 96 415.5 95.3284 415.5 94.5C415.5 93.6716 414.828 93 414 93V96ZM374 96H414V93H374V96Z"
    fill="#40BA06" />
  <rect x="214.5" y="151.5" width="79" height="52" stroke="#066EBA" stroke-width="3" />
  <rect x="132.5" y="56.5" width="240" height="86" stroke="#40BA06" stroke-width="3" />
  <path
    d="M288.876 195.863C288.328 196.484 288.386 197.432 289.006 197.981L299.118 206.925C299.738 207.474 300.686 207.416 301.235 206.796C301.784 206.175 301.726 205.227 301.106 204.678L292.117 196.728L300.068 187.739C300.617 187.119 300.559 186.171 299.938 185.622C299.318 185.073 298.37 185.131 297.821 185.752L288.876 195.863ZM323.242 249.966C322.671 250.566 322.694 251.516 323.295 252.087C323.895 252.658 324.844 252.634 325.415 252.034L323.242 249.966ZM290 196.857C290.092 198.354 290.091 198.355 290.091 198.355C290.091 198.355 290.091 198.355 290.092 198.355C290.092 198.354 290.093 198.354 290.095 198.354C290.098 198.354 290.103 198.354 290.11 198.353C290.125 198.353 290.148 198.351 290.179 198.35C290.242 198.347 290.337 198.342 290.463 198.337C290.715 198.326 291.089 198.314 291.569 198.305C292.531 198.288 293.917 198.287 295.6 198.352C298.971 198.482 303.507 198.875 308.199 199.924C317.701 202.046 327.237 206.699 329.825 216.606L332.727 215.848C329.685 204.201 318.582 199.169 308.854 196.996C303.931 195.896 299.203 195.488 295.715 195.354C293.968 195.287 292.526 195.288 291.516 195.306C291.011 195.315 290.614 195.328 290.34 195.339C290.204 195.345 290.098 195.35 290.025 195.354C289.989 195.356 289.961 195.357 289.941 195.358C289.932 195.359 289.924 195.359 289.918 195.36C289.916 195.36 289.913 195.36 289.912 195.36C289.911 195.36 289.91 195.36 289.91 195.36C289.909 195.36 289.908 195.36 290 196.857ZM329.825 216.606C332.546 227.02 330.864 235.38 328.525 241.13C327.352 244.012 326.013 246.242 324.973 247.744C324.453 248.494 324.01 249.061 323.701 249.435C323.547 249.622 323.426 249.761 323.347 249.85C323.308 249.894 323.279 249.926 323.261 249.946C323.252 249.955 323.246 249.962 323.243 249.965C323.241 249.967 323.24 249.968 323.24 249.968C323.24 249.968 323.24 249.968 323.24 249.968C323.241 249.967 323.241 249.967 323.241 249.967C323.241 249.967 323.242 249.966 324.329 251C325.415 252.034 325.416 252.033 325.417 252.033C325.417 252.032 325.417 252.032 325.418 252.031C325.419 252.03 325.42 252.029 325.422 252.027C325.425 252.024 325.428 252.02 325.433 252.015C325.442 252.006 325.454 251.993 325.468 251.977C325.498 251.945 325.538 251.9 325.59 251.843C325.692 251.728 325.836 251.561 326.015 251.344C326.373 250.911 326.868 250.277 327.439 249.451C328.582 247.801 330.035 245.379 331.303 242.261C333.846 236.013 335.638 226.986 332.727 215.848L329.825 216.606Z"
    fill="#333333" />
  <path
    d="M223.053 160.869C223.749 160.42 223.949 159.491 223.499 158.795L216.177 147.454C215.728 146.758 214.799 146.558 214.103 147.007C213.407 147.456 213.208 148.385 213.657 149.081L220.165 159.162L210.084 165.671C209.388 166.12 209.188 167.049 209.637 167.745C210.086 168.441 211.015 168.641 211.711 168.191L223.053 160.869ZM179.701 121.106C180.057 120.358 179.74 119.463 178.992 119.106C178.245 118.749 177.349 119.066 176.993 119.814L179.701 121.106ZM222.239 159.609C222.555 158.143 222.555 158.143 222.556 158.143C222.556 158.143 222.556 158.143 222.556 158.143C222.557 158.143 222.557 158.143 222.557 158.143C222.556 158.143 222.555 158.143 222.552 158.142C222.548 158.141 222.539 158.139 222.526 158.136C222.501 158.13 222.46 158.121 222.404 158.107C222.292 158.08 222.12 158.036 221.892 157.974C221.438 157.849 220.763 157.649 219.906 157.355C218.191 156.765 215.749 155.797 212.883 154.29C207.151 151.278 199.731 146.118 193.029 137.537L190.665 139.383C197.674 148.358 205.45 153.773 211.487 156.946C214.505 158.532 217.09 159.559 218.931 160.192C219.852 160.508 220.587 160.727 221.098 160.867C221.354 160.937 221.554 160.988 221.693 161.022C221.763 161.039 221.817 161.051 221.855 161.06C221.875 161.065 221.89 161.068 221.901 161.071C221.907 161.072 221.912 161.073 221.915 161.074C221.917 161.074 221.919 161.074 221.92 161.075C221.921 161.075 221.921 161.075 221.922 161.075C221.923 161.075 221.923 161.075 222.239 159.609ZM193.029 137.537C186.176 128.762 182.815 124.281 181.172 122C180.347 120.855 179.971 120.286 179.805 120.017C179.719 119.877 179.713 119.855 179.731 119.895C179.738 119.911 179.777 119.996 179.807 120.121C179.822 120.185 179.844 120.298 179.846 120.442C179.847 120.517 179.843 120.612 179.824 120.721C179.814 120.776 179.8 120.836 179.78 120.901C179.771 120.933 179.759 120.966 179.746 121.001C179.739 121.018 179.728 121.044 179.725 121.053C179.713 121.079 179.701 121.106 178.347 120.46C176.993 119.814 176.98 119.841 176.969 119.867C176.965 119.876 176.954 119.902 176.947 119.919C176.934 119.954 176.923 119.987 176.913 120.019C176.893 120.084 176.879 120.144 176.869 120.2C176.85 120.309 176.846 120.406 176.847 120.481C176.849 120.628 176.872 120.746 176.889 120.817C176.922 120.957 176.969 121.069 176.998 121.131C177.058 121.265 177.142 121.414 177.25 121.59C177.474 121.953 177.901 122.592 178.738 123.753C180.416 126.083 183.806 130.601 190.665 139.383L193.029 137.537Z"
    fill="#333333" />
  <path
    d="M332.257 120.359C331.903 119.61 331.009 119.29 330.26 119.644L318.053 125.409C317.304 125.763 316.984 126.657 317.338 127.406C317.691 128.155 318.585 128.475 319.334 128.122L330.185 122.997L335.31 133.848C335.664 134.597 336.558 134.917 337.307 134.563C338.056 134.21 338.376 133.315 338.023 132.566L332.257 120.359ZM287.133 158.1C286.439 157.648 285.51 157.845 285.058 158.539C284.606 159.233 284.802 160.162 285.497 160.614L287.133 158.1ZM330.901 121C329.489 120.494 329.489 120.493 329.489 120.493C329.489 120.493 329.489 120.492 329.489 120.492C329.49 120.492 329.49 120.492 329.489 120.492C329.489 120.493 329.489 120.494 329.488 120.496C329.486 120.501 329.483 120.509 329.479 120.522C329.469 120.546 329.455 120.585 329.434 120.639C329.392 120.747 329.326 120.911 329.234 121.128C329.051 121.562 328.764 122.205 328.359 123.016C327.549 124.638 326.268 126.932 324.397 129.575C320.656 134.86 314.564 141.536 305.176 147.051L306.695 149.637C316.515 143.87 322.906 136.874 326.846 131.308C328.815 128.525 330.174 126.098 331.043 124.356C331.478 123.485 331.791 122.785 331.998 122.296C332.101 122.052 332.178 121.861 332.229 121.727C332.255 121.66 332.275 121.608 332.289 121.571C332.296 121.553 332.301 121.538 332.305 121.527C332.307 121.522 332.309 121.517 332.31 121.514C332.311 121.512 332.311 121.51 332.312 121.509C332.312 121.509 332.312 121.508 332.312 121.507C332.313 121.507 332.313 121.506 330.901 121ZM305.176 147.051C295.576 152.689 290.691 155.43 288.213 156.759C286.97 157.426 286.356 157.725 286.068 157.853C285.918 157.92 285.895 157.923 285.937 157.911C285.954 157.906 286.043 157.878 286.171 157.865C286.237 157.859 286.352 157.851 286.495 157.868C286.569 157.877 286.662 157.894 286.768 157.927C286.821 157.944 286.879 157.966 286.941 157.994C286.971 158.008 287.003 158.024 287.035 158.041C287.051 158.05 287.076 158.064 287.084 158.069C287.109 158.084 287.133 158.1 286.315 159.357C285.497 160.614 285.521 160.63 285.546 160.645C285.554 160.65 285.579 160.664 285.595 160.673C285.627 160.691 285.659 160.707 285.689 160.721C285.751 160.749 285.809 160.771 285.863 160.787C285.969 160.821 286.063 160.838 286.139 160.847C286.284 160.864 286.404 160.857 286.477 160.85C286.621 160.835 286.737 160.803 286.803 160.783C286.943 160.741 287.102 160.677 287.291 160.593C287.68 160.419 288.37 160.079 289.631 159.403C292.161 158.046 297.087 155.281 306.695 149.637L305.176 147.051Z"
    fill="#333333" />
  <path
    d="M205.466 257.789C206.288 257.687 206.872 256.937 206.77 256.115L205.105 242.718C205.003 241.896 204.254 241.313 203.432 241.415C202.609 241.517 202.026 242.266 202.128 243.088L203.608 254.997L191.699 256.476C190.877 256.578 190.293 257.328 190.395 258.15C190.498 258.972 191.247 259.555 192.069 259.453L205.466 257.789ZM215.492 194.484C216.317 194.411 216.928 193.684 216.855 192.858C216.783 192.033 216.056 191.423 215.23 191.495L215.492 194.484ZM205.281 256.3C206.203 255.117 206.203 255.117 206.203 255.117C206.203 255.117 206.203 255.117 206.203 255.117C206.203 255.117 206.202 255.116 206.201 255.115C206.198 255.113 206.194 255.11 206.188 255.105C206.177 255.096 206.158 255.082 206.134 255.062C206.085 255.023 206.01 254.964 205.913 254.885C205.717 254.726 205.428 254.488 205.062 254.176C204.33 253.553 203.29 252.637 202.071 251.475C199.629 249.147 196.488 245.851 193.663 241.96C187.943 234.082 183.871 224.284 188.484 215.143L185.806 213.792C180.382 224.538 185.378 235.656 191.235 243.723C194.199 247.805 197.474 251.238 200.001 253.646C201.266 254.852 202.349 255.806 203.118 256.461C203.503 256.788 203.809 257.041 204.021 257.213C204.128 257.299 204.21 257.366 204.267 257.411C204.296 257.434 204.318 257.451 204.333 257.463C204.341 257.469 204.347 257.474 204.351 257.477C204.353 257.479 204.355 257.48 204.357 257.481C204.357 257.482 204.358 257.483 204.358 257.483C204.359 257.483 204.359 257.484 205.281 256.3ZM188.484 215.143C193.334 205.534 200.126 200.378 205.685 197.614C208.47 196.229 210.95 195.443 212.724 195.005C213.61 194.786 214.318 194.654 214.796 194.578C215.036 194.54 215.218 194.515 215.336 194.501C215.395 194.494 215.438 194.489 215.464 194.486C215.477 194.485 215.486 194.484 215.491 194.484C215.493 194.483 215.494 194.483 215.495 194.483C215.495 194.483 215.495 194.483 215.494 194.483C215.494 194.483 215.493 194.483 215.493 194.483C215.493 194.484 215.492 194.484 215.361 192.989C215.23 191.495 215.229 191.495 215.229 191.495C215.228 191.495 215.227 191.495 215.226 191.495C215.225 191.495 215.223 191.496 215.221 191.496C215.217 191.496 215.211 191.497 215.205 191.497C215.192 191.499 215.175 191.5 215.153 191.503C215.11 191.507 215.05 191.514 214.973 191.523C214.82 191.542 214.602 191.571 214.324 191.615C213.77 191.704 212.979 191.852 212.004 192.092C210.055 192.574 207.363 193.429 204.349 194.928C198.309 197.931 190.993 203.514 185.806 213.792L188.484 215.143Z"
    fill="#333333" />
  <rect x="315" y="212" width="137" height="27" fill="#333333" />
  <path
    d="M323.435 233V218.455H328.889C330.007 218.455 330.944 218.663 331.702 219.08C332.464 219.496 333.039 220.069 333.428 220.798C333.821 221.523 334.017 222.347 334.017 223.27C334.017 224.203 333.821 225.031 333.428 225.756C333.035 226.48 332.455 227.051 331.688 227.467C330.92 227.879 329.976 228.085 328.854 228.085H325.239V225.919H328.499C329.152 225.919 329.687 225.805 330.104 225.578C330.52 225.351 330.828 225.038 331.027 224.641C331.231 224.243 331.332 223.786 331.332 223.27C331.332 222.754 331.231 222.299 331.027 221.906C330.828 221.513 330.518 221.208 330.097 220.99C329.68 220.768 329.143 220.656 328.484 220.656H326.07V233H323.435ZM340.794 233.213C339.729 233.213 338.806 232.979 338.025 232.51C337.243 232.041 336.637 231.385 336.206 230.543C335.78 229.7 335.567 228.715 335.567 227.588C335.567 226.461 335.78 225.474 336.206 224.626C336.637 223.779 337.243 223.121 338.025 222.652C338.806 222.183 339.729 221.949 340.794 221.949C341.86 221.949 342.783 222.183 343.564 222.652C344.346 223.121 344.949 223.779 345.375 224.626C345.806 225.474 346.022 226.461 346.022 227.588C346.022 228.715 345.806 229.7 345.375 230.543C344.949 231.385 344.346 232.041 343.564 232.51C342.783 232.979 341.86 233.213 340.794 233.213ZM340.809 231.153C341.386 231.153 341.869 230.995 342.257 230.678C342.646 230.356 342.935 229.925 343.124 229.385C343.318 228.845 343.415 228.244 343.415 227.581C343.415 226.913 343.318 226.31 343.124 225.77C342.935 225.225 342.646 224.792 342.257 224.47C341.869 224.148 341.386 223.987 340.809 223.987C340.217 223.987 339.724 224.148 339.331 224.47C338.943 224.792 338.652 225.225 338.458 225.77C338.268 226.31 338.174 226.913 338.174 227.581C338.174 228.244 338.268 228.845 338.458 229.385C338.652 229.925 338.943 230.356 339.331 230.678C339.724 230.995 340.217 231.153 340.809 231.153ZM348.204 233V222.091H350.775V233H348.204ZM349.496 220.543C349.089 220.543 348.739 220.408 348.445 220.138C348.152 219.863 348.005 219.534 348.005 219.151C348.005 218.762 348.152 218.433 348.445 218.163C348.739 217.889 349.089 217.751 349.496 217.751C349.908 217.751 350.259 217.889 350.548 218.163C350.841 218.433 350.988 218.762 350.988 219.151C350.988 219.534 350.841 219.863 350.548 220.138C350.259 220.408 349.908 220.543 349.496 220.543ZM355.99 226.608V233H353.419V222.091H355.876V223.945H356.004C356.255 223.334 356.655 222.848 357.204 222.489C357.758 222.129 358.442 221.949 359.257 221.949C360.01 221.949 360.665 222.11 361.224 222.432C361.788 222.754 362.223 223.22 362.531 223.831C362.843 224.442 362.997 225.183 362.993 226.054V233H360.422V226.452C360.422 225.723 360.232 225.152 359.853 224.74C359.479 224.328 358.961 224.122 358.298 224.122C357.848 224.122 357.448 224.222 357.098 224.42C356.752 224.615 356.48 224.896 356.281 225.266C356.087 225.635 355.99 226.082 355.99 226.608ZM371.054 222.091V224.08H364.782V222.091H371.054ZM366.331 219.477H368.902V229.719C368.902 230.064 368.954 230.33 369.058 230.514C369.167 230.694 369.309 230.817 369.484 230.884C369.659 230.95 369.853 230.983 370.066 230.983C370.227 230.983 370.374 230.971 370.507 230.947C370.644 230.924 370.748 230.902 370.819 230.884L371.252 232.893C371.115 232.941 370.919 232.993 370.663 233.05C370.412 233.107 370.104 233.14 369.74 233.149C369.096 233.168 368.516 233.071 368 232.858C367.484 232.64 367.074 232.304 366.771 231.849C366.473 231.395 366.326 230.827 366.331 230.145V219.477ZM377.916 233.213C376.822 233.213 375.878 232.986 375.082 232.531C374.292 232.072 373.683 231.423 373.257 230.585C372.831 229.742 372.618 228.75 372.618 227.609C372.618 226.487 372.831 225.502 373.257 224.655C373.688 223.803 374.289 223.14 375.061 222.666C375.833 222.188 376.74 221.949 377.781 221.949C378.454 221.949 379.088 222.058 379.685 222.276C380.286 222.489 380.816 222.82 381.276 223.27C381.74 223.72 382.104 224.293 382.369 224.989C382.634 225.68 382.767 226.504 382.767 227.46V228.249H373.825V226.516H380.303C380.298 226.023 380.191 225.585 379.983 225.202C379.775 224.813 379.483 224.508 379.109 224.286C378.74 224.063 378.309 223.952 377.817 223.952C377.291 223.952 376.83 224.08 376.432 224.335C376.034 224.586 375.724 224.918 375.501 225.33C375.284 225.737 375.172 226.184 375.168 226.672V228.185C375.168 228.819 375.284 229.364 375.516 229.818C375.748 230.268 376.072 230.614 376.489 230.855C376.905 231.092 377.393 231.21 377.952 231.21C378.326 231.21 378.664 231.158 378.967 231.054C379.27 230.945 379.533 230.786 379.756 230.578C379.978 230.37 380.146 230.112 380.26 229.804L382.661 230.074C382.509 230.708 382.22 231.262 381.794 231.736C381.373 232.205 380.833 232.569 380.175 232.83C379.517 233.085 378.764 233.213 377.916 233.213ZM384.942 233V222.091H387.435V223.909H387.549C387.748 223.279 388.088 222.794 388.571 222.453C389.059 222.107 389.615 221.935 390.24 221.935C390.382 221.935 390.541 221.942 390.716 221.956C390.896 221.965 391.045 221.982 391.164 222.006V224.371C391.055 224.333 390.882 224.3 390.645 224.271C390.413 224.238 390.188 224.222 389.971 224.222C389.502 224.222 389.08 224.323 388.706 224.527C388.337 224.726 388.046 225.003 387.833 225.358C387.62 225.713 387.513 226.123 387.513 226.587V233H384.942ZM392.985 233V218.455H402.446V220.663H395.62V224.612H401.956V226.821H395.62V230.791H402.502V233H392.985ZM407.591 226.608V233H405.02V222.091H407.478V223.945H407.605C407.856 223.334 408.257 222.848 408.806 222.489C409.36 222.129 410.044 221.949 410.858 221.949C411.611 221.949 412.267 222.11 412.826 222.432C413.389 222.754 413.825 223.22 414.132 223.831C414.445 224.442 414.599 225.183 414.594 226.054V233H412.023V226.452C412.023 225.723 411.834 225.152 411.455 224.74C411.081 224.328 410.562 224.122 409.9 224.122C409.45 224.122 409.05 224.222 408.699 224.42C408.354 224.615 408.081 224.896 407.882 225.266C407.688 225.635 407.591 226.082 407.591 226.608ZM422.655 222.091V224.08H416.384V222.091H422.655ZM417.932 219.477H420.503V229.719C420.503 230.064 420.555 230.33 420.659 230.514C420.768 230.694 420.91 230.817 421.086 230.884C421.261 230.95 421.455 230.983 421.668 230.983C421.829 230.983 421.976 230.971 422.108 230.947C422.246 230.924 422.35 230.902 422.421 230.884L422.854 232.893C422.717 232.941 422.52 232.993 422.265 233.05C422.014 233.107 421.706 233.14 421.341 233.149C420.697 233.168 420.117 233.071 419.601 232.858C419.085 232.64 418.676 232.304 418.373 231.849C418.074 231.395 417.927 230.827 417.932 230.145V219.477ZM429.518 233.213C428.424 233.213 427.479 232.986 426.684 232.531C425.893 232.072 425.285 231.423 424.859 230.585C424.433 229.742 424.219 228.75 424.219 227.609C424.219 226.487 424.433 225.502 424.859 224.655C425.29 223.803 425.891 223.14 426.663 222.666C427.434 222.188 428.341 221.949 429.383 221.949C430.055 221.949 430.69 222.058 431.286 222.276C431.888 222.489 432.418 222.82 432.877 223.27C433.341 223.72 433.706 224.293 433.971 224.989C434.236 225.68 434.369 226.504 434.369 227.46V228.249H425.427V226.516H431.904C431.899 226.023 431.793 225.585 431.585 225.202C431.376 224.813 431.085 224.508 430.711 224.286C430.342 224.063 429.911 223.952 429.418 223.952C428.893 223.952 428.431 224.08 428.033 224.335C427.636 224.586 427.326 224.918 427.103 225.33C426.885 225.737 426.774 226.184 426.769 226.672V228.185C426.769 228.819 426.885 229.364 427.117 229.818C427.349 230.268 427.674 230.614 428.09 230.855C428.507 231.092 428.995 231.21 429.553 231.21C429.927 231.21 430.266 231.158 430.569 231.054C430.872 230.945 431.135 230.786 431.357 230.578C431.58 230.37 431.748 230.112 431.862 229.804L434.262 230.074C434.111 230.708 433.822 231.262 433.396 231.736C432.974 232.205 432.434 232.569 431.776 232.83C431.118 233.085 430.365 233.213 429.518 233.213ZM436.544 233V222.091H439.037V223.909H439.15C439.349 223.279 439.69 222.794 440.173 222.453C440.661 222.107 441.217 221.935 441.842 221.935C441.984 221.935 442.143 221.942 442.318 221.956C442.498 221.965 442.647 221.982 442.765 222.006V224.371C442.656 224.333 442.484 224.3 442.247 224.271C442.015 224.238 441.79 224.222 441.572 224.222C441.103 224.222 440.682 224.323 440.308 224.527C439.939 224.726 439.647 225.003 439.434 225.358C439.221 225.713 439.115 226.123 439.115 226.587V233H436.544Z"
    fill="white" />
  <rect x="59" y="132" width="137" height="27" fill="#333333" />
  <path
    d="M67.4347 153V138.455H72.8892C74.0066 138.455 74.9441 138.663 75.7017 139.08C76.464 139.496 77.0393 140.069 77.4276 140.798C77.8205 141.523 78.017 142.347 78.017 143.27C78.017 144.203 77.8205 145.031 77.4276 145.756C77.0346 146.48 76.4545 147.051 75.6875 147.467C74.9205 147.879 73.9759 148.085 72.8537 148.085H69.2386V145.919H72.4986C73.152 145.919 73.687 145.805 74.1037 145.578C74.5204 145.351 74.8281 145.038 75.027 144.641C75.2306 144.243 75.3324 143.786 75.3324 143.27C75.3324 142.754 75.2306 142.299 75.027 141.906C74.8281 141.513 74.518 141.208 74.0966 140.99C73.6799 140.768 73.1425 140.656 72.4844 140.656H70.0696V153H67.4347ZM84.7944 153.213C83.729 153.213 82.8058 152.979 82.0245 152.51C81.2433 152.041 80.6372 151.385 80.2063 150.543C79.7802 149.7 79.5671 148.715 79.5671 147.588C79.5671 146.461 79.7802 145.474 80.2063 144.626C80.6372 143.779 81.2433 143.121 82.0245 142.652C82.8058 142.183 83.729 141.949 84.7944 141.949C85.8597 141.949 86.783 142.183 87.5643 142.652C88.3455 143.121 88.9492 143.779 89.3754 144.626C89.8062 145.474 90.0217 146.461 90.0217 147.588C90.0217 148.715 89.8062 149.7 89.3754 150.543C88.9492 151.385 88.3455 152.041 87.5643 152.51C86.783 152.979 85.8597 153.213 84.7944 153.213ZM84.8086 151.153C85.3862 151.153 85.8692 150.995 86.2575 150.678C86.6457 150.356 86.9345 149.925 87.1239 149.385C87.3181 148.845 87.4151 148.244 87.4151 147.581C87.4151 146.913 87.3181 146.31 87.1239 145.77C86.9345 145.225 86.6457 144.792 86.2575 144.47C85.8692 144.148 85.3862 143.987 84.8086 143.987C84.2167 143.987 83.7243 144.148 83.3313 144.47C82.9431 144.792 82.6519 145.225 82.4577 145.77C82.2683 146.31 82.1737 146.913 82.1737 147.581C82.1737 148.244 82.2683 148.845 82.4577 149.385C82.6519 149.925 82.9431 150.356 83.3313 150.678C83.7243 150.995 84.2167 151.153 84.8086 151.153ZM92.2038 153V142.091H94.7749V153H92.2038ZM93.4964 140.543C93.0893 140.543 92.7389 140.408 92.4453 140.138C92.1518 139.863 92.005 139.534 92.005 139.151C92.005 138.762 92.1518 138.433 92.4453 138.163C92.7389 137.889 93.0893 137.751 93.4964 137.751C93.9084 137.751 94.2588 137.889 94.5476 138.163C94.8411 138.433 94.9879 138.762 94.9879 139.151C94.9879 139.534 94.8411 139.863 94.5476 140.138C94.2588 140.408 93.9084 140.543 93.4964 140.543ZM99.9897 146.608V153H97.4187V142.091H99.8761V143.945H100.004C100.255 143.334 100.655 142.848 101.204 142.489C101.758 142.129 102.442 141.949 103.257 141.949C104.01 141.949 104.665 142.11 105.224 142.432C105.788 142.754 106.223 143.22 106.531 143.831C106.843 144.442 106.997 145.183 106.993 146.054V153H104.422V146.452C104.422 145.723 104.232 145.152 103.853 144.74C103.479 144.328 102.961 144.122 102.298 144.122C101.848 144.122 101.448 144.222 101.098 144.42C100.752 144.615 100.48 144.896 100.281 145.266C100.087 145.635 99.9897 146.082 99.9897 146.608ZM115.054 142.091V144.08H108.782V142.091H115.054ZM110.331 139.477H112.902V149.719C112.902 150.064 112.954 150.33 113.058 150.514C113.167 150.694 113.309 150.817 113.484 150.884C113.659 150.95 113.853 150.983 114.066 150.983C114.227 150.983 114.374 150.971 114.507 150.947C114.644 150.924 114.748 150.902 114.819 150.884L115.252 152.893C115.115 152.941 114.919 152.993 114.663 153.05C114.412 153.107 114.104 153.14 113.74 153.149C113.096 153.168 112.516 153.071 112 152.858C111.484 152.64 111.074 152.304 110.771 151.849C110.473 151.395 110.326 150.827 110.331 150.145V139.477ZM121.916 153.213C120.822 153.213 119.878 152.986 119.082 152.531C118.292 152.072 117.683 151.423 117.257 150.585C116.831 149.742 116.618 148.75 116.618 147.609C116.618 146.487 116.831 145.502 117.257 144.655C117.688 143.803 118.289 143.14 119.061 142.666C119.833 142.188 120.74 141.949 121.781 141.949C122.454 141.949 123.088 142.058 123.685 142.276C124.286 142.489 124.816 142.82 125.276 143.27C125.74 143.72 126.104 144.293 126.369 144.989C126.634 145.68 126.767 146.504 126.767 147.46V148.249H117.825V146.516H124.303C124.298 146.023 124.191 145.585 123.983 145.202C123.775 144.813 123.483 144.508 123.109 144.286C122.74 144.063 122.309 143.952 121.817 143.952C121.291 143.952 120.83 144.08 120.432 144.335C120.034 144.586 119.724 144.918 119.501 145.33C119.284 145.737 119.172 146.184 119.168 146.672V148.185C119.168 148.819 119.284 149.364 119.516 149.818C119.748 150.268 120.072 150.614 120.489 150.855C120.905 151.092 121.393 151.21 121.952 151.21C122.326 151.21 122.664 151.158 122.967 151.054C123.27 150.945 123.533 150.786 123.756 150.578C123.978 150.37 124.146 150.112 124.26 149.804L126.661 150.074C126.509 150.708 126.22 151.262 125.794 151.736C125.373 152.205 124.833 152.569 124.175 152.83C123.517 153.085 122.764 153.213 121.916 153.213ZM128.942 153V142.091H131.435V143.909H131.549C131.748 143.279 132.088 142.794 132.571 142.453C133.059 142.107 133.615 141.935 134.24 141.935C134.382 141.935 134.541 141.942 134.716 141.956C134.896 141.965 135.045 141.982 135.164 142.006V144.371C135.055 144.333 134.882 144.3 134.645 144.271C134.413 144.238 134.188 144.222 133.971 144.222C133.502 144.222 133.08 144.323 132.706 144.527C132.337 144.726 132.046 145.003 131.833 145.358C131.62 145.713 131.513 146.123 131.513 146.587V153H128.942ZM136.985 153V138.455H146.446V140.663H139.62V144.612H145.956V146.821H139.62V150.791H146.502V153H136.985ZM151.591 146.608V153H149.02V142.091H151.478V143.945H151.605C151.856 143.334 152.257 142.848 152.806 142.489C153.36 142.129 154.044 141.949 154.858 141.949C155.611 141.949 156.267 142.11 156.826 142.432C157.389 142.754 157.825 143.22 158.132 143.831C158.445 144.442 158.599 145.183 158.594 146.054V153H156.023V146.452C156.023 145.723 155.834 145.152 155.455 144.74C155.081 144.328 154.562 144.122 153.9 144.122C153.45 144.122 153.05 144.222 152.699 144.42C152.354 144.615 152.081 144.896 151.882 145.266C151.688 145.635 151.591 146.082 151.591 146.608ZM166.655 142.091V144.08H160.384V142.091H166.655ZM161.932 139.477H164.503V149.719C164.503 150.064 164.555 150.33 164.659 150.514C164.768 150.694 164.91 150.817 165.086 150.884C165.261 150.95 165.455 150.983 165.668 150.983C165.829 150.983 165.976 150.971 166.108 150.947C166.246 150.924 166.35 150.902 166.421 150.884L166.854 152.893C166.717 152.941 166.52 152.993 166.265 153.05C166.014 153.107 165.706 153.14 165.341 153.149C164.697 153.168 164.117 153.071 163.601 152.858C163.085 152.64 162.676 152.304 162.373 151.849C162.074 151.395 161.927 150.827 161.932 150.145V139.477ZM173.518 153.213C172.424 153.213 171.479 152.986 170.684 152.531C169.893 152.072 169.285 151.423 168.859 150.585C168.433 149.742 168.219 148.75 168.219 147.609C168.219 146.487 168.433 145.502 168.859 144.655C169.29 143.803 169.891 143.14 170.663 142.666C171.434 142.188 172.341 141.949 173.383 141.949C174.055 141.949 174.69 142.058 175.286 142.276C175.888 142.489 176.418 142.82 176.877 143.27C177.341 143.72 177.706 144.293 177.971 144.989C178.236 145.68 178.369 146.504 178.369 147.46V148.249H169.427V146.516H175.904C175.899 146.023 175.793 145.585 175.585 145.202C175.376 144.813 175.085 144.508 174.711 144.286C174.342 144.063 173.911 143.952 173.418 143.952C172.893 143.952 172.431 144.08 172.033 144.335C171.636 144.586 171.326 144.918 171.103 145.33C170.885 145.737 170.774 146.184 170.769 146.672V148.185C170.769 148.819 170.885 149.364 171.117 149.818C171.349 150.268 171.674 150.614 172.09 150.855C172.507 151.092 172.995 151.21 173.553 151.21C173.927 151.21 174.266 151.158 174.569 151.054C174.872 150.945 175.135 150.786 175.357 150.578C175.58 150.37 175.748 150.112 175.862 149.804L178.262 150.074C178.111 150.708 177.822 151.262 177.396 151.736C176.974 152.205 176.434 152.569 175.776 152.83C175.118 153.085 174.365 153.213 173.518 153.213ZM180.544 153V142.091H183.037V143.909H183.15C183.349 143.279 183.69 142.794 184.173 142.453C184.661 142.107 185.217 141.935 185.842 141.935C185.984 141.935 186.143 141.942 186.318 141.956C186.498 141.965 186.647 141.982 186.765 142.006V144.371C186.656 144.333 186.484 144.3 186.247 144.271C186.015 144.238 185.79 144.222 185.572 144.222C185.103 144.222 184.682 144.323 184.308 144.527C183.939 144.726 183.647 145.003 183.434 145.358C183.221 145.713 183.115 146.123 183.115 146.587V153H180.544Z"
    fill="white" />
  <rect x="55" y="213" width="141" height="27" fill="#333333" />
  <path
    d="M62.4347 234V219.455H67.8892C69.0066 219.455 69.9441 219.663 70.7017 220.08C71.464 220.496 72.0393 221.069 72.4276 221.798C72.8205 222.523 73.017 223.347 73.017 224.27C73.017 225.203 72.8205 226.031 72.4276 226.756C72.0346 227.48 71.4545 228.051 70.6875 228.467C69.9205 228.879 68.9759 229.085 67.8537 229.085H64.2386V226.919H67.4986C68.152 226.919 68.687 226.805 69.1037 226.578C69.5204 226.351 69.8281 226.038 70.027 225.641C70.2306 225.243 70.3324 224.786 70.3324 224.27C70.3324 223.754 70.2306 223.299 70.027 222.906C69.8281 222.513 69.518 222.208 69.0966 221.99C68.6799 221.768 68.1425 221.656 67.4844 221.656H65.0696V234H62.4347ZM79.7944 234.213C78.729 234.213 77.8058 233.979 77.0245 233.51C76.2433 233.041 75.6372 232.385 75.2063 231.543C74.7802 230.7 74.5671 229.715 74.5671 228.588C74.5671 227.461 74.7802 226.474 75.2063 225.626C75.6372 224.779 76.2433 224.121 77.0245 223.652C77.8058 223.183 78.729 222.949 79.7944 222.949C80.8597 222.949 81.783 223.183 82.5643 223.652C83.3455 224.121 83.9492 224.779 84.3754 225.626C84.8062 226.474 85.0217 227.461 85.0217 228.588C85.0217 229.715 84.8062 230.7 84.3754 231.543C83.9492 232.385 83.3455 233.041 82.5643 233.51C81.783 233.979 80.8597 234.213 79.7944 234.213ZM79.8086 232.153C80.3862 232.153 80.8692 231.995 81.2575 231.678C81.6457 231.356 81.9345 230.925 82.1239 230.385C82.3181 229.845 82.4151 229.244 82.4151 228.581C82.4151 227.913 82.3181 227.31 82.1239 226.77C81.9345 226.225 81.6457 225.792 81.2575 225.47C80.8692 225.148 80.3862 224.987 79.8086 224.987C79.2167 224.987 78.7243 225.148 78.3313 225.47C77.9431 225.792 77.6519 226.225 77.4577 226.77C77.2683 227.31 77.1737 227.913 77.1737 228.581C77.1737 229.244 77.2683 229.845 77.4577 230.385C77.6519 230.925 77.9431 231.356 78.3313 231.678C78.7243 231.995 79.2167 232.153 79.8086 232.153ZM87.2038 234V223.091H89.7749V234H87.2038ZM88.4964 221.543C88.0893 221.543 87.7389 221.408 87.4453 221.138C87.1518 220.863 87.005 220.534 87.005 220.151C87.005 219.762 87.1518 219.433 87.4453 219.163C87.7389 218.889 88.0893 218.751 88.4964 218.751C88.9084 218.751 89.2588 218.889 89.5476 219.163C89.8411 219.433 89.9879 219.762 89.9879 220.151C89.9879 220.534 89.8411 220.863 89.5476 221.138C89.2588 221.408 88.9084 221.543 88.4964 221.543ZM94.9897 227.608V234H92.4187V223.091H94.8761V224.945H95.0039C95.2549 224.334 95.6549 223.848 96.2042 223.489C96.7582 223.129 97.4424 222.949 98.2567 222.949C99.0096 222.949 99.6654 223.11 100.224 223.432C100.788 223.754 101.223 224.22 101.531 224.831C101.843 225.442 101.997 226.183 101.993 227.054V234H99.4215V227.452C99.4215 226.723 99.2321 226.152 98.8533 225.74C98.4793 225.328 97.9608 225.122 97.2979 225.122C96.8481 225.122 96.448 225.222 96.0977 225.42C95.752 225.615 95.4798 225.896 95.2809 226.266C95.0868 226.635 94.9897 227.082 94.9897 227.608ZM110.054 223.091V225.08H103.782V223.091H110.054ZM105.331 220.477H107.902V230.719C107.902 231.064 107.954 231.33 108.058 231.514C108.167 231.694 108.309 231.817 108.484 231.884C108.659 231.95 108.853 231.983 109.066 231.983C109.227 231.983 109.374 231.971 109.507 231.947C109.644 231.924 109.748 231.902 109.819 231.884L110.252 233.893C110.115 233.941 109.919 233.993 109.663 234.05C109.412 234.107 109.104 234.14 108.74 234.149C108.096 234.168 107.516 234.071 107 233.858C106.484 233.64 106.074 233.304 105.771 232.849C105.473 232.395 105.326 231.827 105.331 231.145V220.477ZM116.916 234.213C115.822 234.213 114.878 233.986 114.082 233.531C113.292 233.072 112.683 232.423 112.257 231.585C111.831 230.742 111.618 229.75 111.618 228.609C111.618 227.487 111.831 226.502 112.257 225.655C112.688 224.803 113.289 224.14 114.061 223.666C114.833 223.188 115.74 222.949 116.781 222.949C117.454 222.949 118.088 223.058 118.685 223.276C119.286 223.489 119.816 223.82 120.276 224.27C120.74 224.72 121.104 225.293 121.369 225.989C121.634 226.68 121.767 227.504 121.767 228.46V229.249H112.825V227.516H119.303C119.298 227.023 119.191 226.585 118.983 226.202C118.775 225.813 118.483 225.508 118.109 225.286C117.74 225.063 117.309 224.952 116.817 224.952C116.291 224.952 115.83 225.08 115.432 225.335C115.034 225.586 114.724 225.918 114.501 226.33C114.284 226.737 114.172 227.184 114.168 227.672V229.185C114.168 229.819 114.284 230.364 114.516 230.818C114.748 231.268 115.072 231.614 115.489 231.855C115.905 232.092 116.393 232.21 116.952 232.21C117.326 232.21 117.664 232.158 117.967 232.054C118.27 231.945 118.533 231.786 118.756 231.578C118.978 231.37 119.146 231.112 119.26 230.804L121.661 231.074C121.509 231.708 121.22 232.262 120.794 232.736C120.373 233.205 119.833 233.569 119.175 233.83C118.517 234.085 117.764 234.213 116.916 234.213ZM123.942 234V223.091H126.435V224.909H126.549C126.748 224.279 127.088 223.794 127.571 223.453C128.059 223.107 128.615 222.935 129.24 222.935C129.382 222.935 129.541 222.942 129.716 222.956C129.896 222.965 130.045 222.982 130.164 223.006V225.371C130.055 225.333 129.882 225.3 129.645 225.271C129.413 225.238 129.188 225.222 128.971 225.222C128.502 225.222 128.08 225.323 127.706 225.527C127.337 225.726 127.046 226.003 126.833 226.358C126.62 226.713 126.513 227.123 126.513 227.587V234H123.942ZM131.985 234V219.455H134.62V231.791H141.027V234H131.985ZM148.029 234.213C146.936 234.213 145.991 233.986 145.196 233.531C144.405 233.072 143.797 232.423 143.37 231.585C142.944 230.742 142.731 229.75 142.731 228.609C142.731 227.487 142.944 226.502 143.37 225.655C143.801 224.803 144.403 224.14 145.174 223.666C145.946 223.188 146.853 222.949 147.895 222.949C148.567 222.949 149.201 223.058 149.798 223.276C150.399 223.489 150.93 223.82 151.389 224.27C151.853 224.72 152.217 225.293 152.483 225.989C152.748 226.68 152.88 227.504 152.88 228.46V229.249H143.939V227.516H150.416C150.411 227.023 150.305 226.585 150.096 226.202C149.888 225.813 149.597 225.508 149.223 225.286C148.853 225.063 148.422 224.952 147.93 224.952C147.404 224.952 146.943 225.08 146.545 225.335C146.147 225.586 145.837 225.918 145.615 226.33C145.397 226.737 145.286 227.184 145.281 227.672V229.185C145.281 229.819 145.397 230.364 145.629 230.818C145.861 231.268 146.185 231.614 146.602 231.855C147.019 232.092 147.506 232.21 148.065 232.21C148.439 232.21 148.778 232.158 149.081 232.054C149.384 231.945 149.646 231.786 149.869 231.578C150.092 231.37 150.26 231.112 150.373 230.804L152.774 231.074C152.622 231.708 152.333 232.262 151.907 232.736C151.486 233.205 150.946 233.569 150.288 233.83C149.63 234.085 148.877 234.213 148.029 234.213ZM158.195 234.22C157.503 234.22 156.881 234.097 156.327 233.851C155.777 233.6 155.342 233.231 155.02 232.743C154.703 232.255 154.544 231.654 154.544 230.939C154.544 230.323 154.658 229.814 154.885 229.412C155.112 229.009 155.422 228.688 155.815 228.446C156.208 228.205 156.651 228.022 157.143 227.899C157.641 227.771 158.154 227.679 158.685 227.622C159.324 227.556 159.842 227.497 160.24 227.445C160.638 227.388 160.927 227.303 161.107 227.189C161.291 227.071 161.384 226.888 161.384 226.642V226.599C161.384 226.064 161.225 225.65 160.908 225.357C160.59 225.063 160.134 224.916 159.537 224.916C158.907 224.916 158.408 225.054 158.038 225.328C157.674 225.603 157.428 225.927 157.3 226.301L154.899 225.96C155.089 225.297 155.401 224.743 155.837 224.298C156.272 223.848 156.805 223.512 157.435 223.29C158.064 223.062 158.76 222.949 159.523 222.949C160.048 222.949 160.571 223.01 161.092 223.134C161.613 223.257 162.089 223.46 162.52 223.744C162.951 224.024 163.296 224.405 163.557 224.888C163.822 225.371 163.955 225.974 163.955 226.699V234H161.483V232.501H161.398C161.241 232.804 161.021 233.089 160.737 233.354C160.458 233.614 160.105 233.825 159.679 233.986C159.258 234.142 158.763 234.22 158.195 234.22ZM158.862 232.331C159.378 232.331 159.826 232.229 160.205 232.026C160.583 231.817 160.875 231.543 161.078 231.202C161.286 230.861 161.391 230.489 161.391 230.087V228.801C161.31 228.867 161.173 228.929 160.979 228.986C160.789 229.043 160.576 229.092 160.339 229.135C160.103 229.178 159.868 229.215 159.636 229.249C159.404 229.282 159.203 229.31 159.033 229.334C158.649 229.386 158.306 229.471 158.003 229.589C157.7 229.708 157.461 229.874 157.286 230.087C157.11 230.295 157.023 230.565 157.023 230.896C157.023 231.37 157.196 231.727 157.541 231.969C157.887 232.21 158.327 232.331 158.862 232.331ZM175.893 223.091L172.009 234H169.168L165.283 223.091H168.024L170.531 231.195H170.645L173.159 223.091H175.893ZM182.131 234.213C181.037 234.213 180.093 233.986 179.297 233.531C178.507 233.072 177.898 232.423 177.472 231.585C177.046 230.742 176.833 229.75 176.833 228.609C176.833 227.487 177.046 226.502 177.472 225.655C177.903 224.803 178.504 224.14 179.276 223.666C180.048 223.188 180.954 222.949 181.996 222.949C182.668 222.949 183.303 223.058 183.9 223.276C184.501 223.489 185.031 223.82 185.49 224.27C185.954 224.72 186.319 225.293 186.584 225.989C186.849 226.68 186.982 227.504 186.982 228.46V229.249H178.04V227.516H184.517C184.513 227.023 184.406 226.585 184.198 226.202C183.989 225.813 183.698 225.508 183.324 225.286C182.955 225.063 182.524 224.952 182.032 224.952C181.506 224.952 181.044 225.08 180.647 225.335C180.249 225.586 179.939 225.918 179.716 226.33C179.498 226.737 179.387 227.184 179.382 227.672V229.185C179.382 229.819 179.498 230.364 179.73 230.818C179.962 231.268 180.287 231.614 180.703 231.855C181.12 232.092 181.608 232.21 182.167 232.21C182.541 232.21 182.879 232.158 183.182 232.054C183.485 231.945 183.748 231.786 183.971 231.578C184.193 231.37 184.361 231.112 184.475 230.804L186.875 231.074C186.724 231.708 186.435 232.262 186.009 232.736C185.587 233.205 185.048 233.569 184.39 233.83C183.731 234.085 182.979 234.213 182.131 234.213Z"
    fill="white" />
  <rect x="315" y="132" width="141" height="27" fill="#333333" />
  <path
    d="M322.435 153V138.455H327.889C329.007 138.455 329.944 138.663 330.702 139.08C331.464 139.496 332.039 140.069 332.428 140.798C332.821 141.523 333.017 142.347 333.017 143.27C333.017 144.203 332.821 145.031 332.428 145.756C332.035 146.48 331.455 147.051 330.688 147.467C329.92 147.879 328.976 148.085 327.854 148.085H324.239V145.919H327.499C328.152 145.919 328.687 145.805 329.104 145.578C329.52 145.351 329.828 145.038 330.027 144.641C330.231 144.243 330.332 143.786 330.332 143.27C330.332 142.754 330.231 142.299 330.027 141.906C329.828 141.513 329.518 141.208 329.097 140.99C328.68 140.768 328.143 140.656 327.484 140.656H325.07V153H322.435ZM339.794 153.213C338.729 153.213 337.806 152.979 337.025 152.51C336.243 152.041 335.637 151.385 335.206 150.543C334.78 149.7 334.567 148.715 334.567 147.588C334.567 146.461 334.78 145.474 335.206 144.626C335.637 143.779 336.243 143.121 337.025 142.652C337.806 142.183 338.729 141.949 339.794 141.949C340.86 141.949 341.783 142.183 342.564 142.652C343.346 143.121 343.949 143.779 344.375 144.626C344.806 145.474 345.022 146.461 345.022 147.588C345.022 148.715 344.806 149.7 344.375 150.543C343.949 151.385 343.346 152.041 342.564 152.51C341.783 152.979 340.86 153.213 339.794 153.213ZM339.809 151.153C340.386 151.153 340.869 150.995 341.257 150.678C341.646 150.356 341.935 149.925 342.124 149.385C342.318 148.845 342.415 148.244 342.415 147.581C342.415 146.913 342.318 146.31 342.124 145.77C341.935 145.225 341.646 144.792 341.257 144.47C340.869 144.148 340.386 143.987 339.809 143.987C339.217 143.987 338.724 144.148 338.331 144.47C337.943 144.792 337.652 145.225 337.458 145.77C337.268 146.31 337.174 146.913 337.174 147.581C337.174 148.244 337.268 148.845 337.458 149.385C337.652 149.925 337.943 150.356 338.331 150.678C338.724 150.995 339.217 151.153 339.809 151.153ZM347.204 153V142.091H349.775V153H347.204ZM348.496 140.543C348.089 140.543 347.739 140.408 347.445 140.138C347.152 139.863 347.005 139.534 347.005 139.151C347.005 138.762 347.152 138.433 347.445 138.163C347.739 137.889 348.089 137.751 348.496 137.751C348.908 137.751 349.259 137.889 349.548 138.163C349.841 138.433 349.988 138.762 349.988 139.151C349.988 139.534 349.841 139.863 349.548 140.138C349.259 140.408 348.908 140.543 348.496 140.543ZM354.99 146.608V153H352.419V142.091H354.876V143.945H355.004C355.255 143.334 355.655 142.848 356.204 142.489C356.758 142.129 357.442 141.949 358.257 141.949C359.01 141.949 359.665 142.11 360.224 142.432C360.788 142.754 361.223 143.22 361.531 143.831C361.843 144.442 361.997 145.183 361.993 146.054V153H359.422V146.452C359.422 145.723 359.232 145.152 358.853 144.74C358.479 144.328 357.961 144.122 357.298 144.122C356.848 144.122 356.448 144.222 356.098 144.42C355.752 144.615 355.48 144.896 355.281 145.266C355.087 145.635 354.99 146.082 354.99 146.608ZM370.054 142.091V144.08H363.782V142.091H370.054ZM365.331 139.477H367.902V149.719C367.902 150.064 367.954 150.33 368.058 150.514C368.167 150.694 368.309 150.817 368.484 150.884C368.659 150.95 368.853 150.983 369.066 150.983C369.227 150.983 369.374 150.971 369.507 150.947C369.644 150.924 369.748 150.902 369.819 150.884L370.252 152.893C370.115 152.941 369.919 152.993 369.663 153.05C369.412 153.107 369.104 153.14 368.74 153.149C368.096 153.168 367.516 153.071 367 152.858C366.484 152.64 366.074 152.304 365.771 151.849C365.473 151.395 365.326 150.827 365.331 150.145V139.477ZM376.916 153.213C375.822 153.213 374.878 152.986 374.082 152.531C373.292 152.072 372.683 151.423 372.257 150.585C371.831 149.742 371.618 148.75 371.618 147.609C371.618 146.487 371.831 145.502 372.257 144.655C372.688 143.803 373.289 143.14 374.061 142.666C374.833 142.188 375.74 141.949 376.781 141.949C377.454 141.949 378.088 142.058 378.685 142.276C379.286 142.489 379.816 142.82 380.276 143.27C380.74 143.72 381.104 144.293 381.369 144.989C381.634 145.68 381.767 146.504 381.767 147.46V148.249H372.825V146.516H379.303C379.298 146.023 379.191 145.585 378.983 145.202C378.775 144.813 378.483 144.508 378.109 144.286C377.74 144.063 377.309 143.952 376.817 143.952C376.291 143.952 375.83 144.08 375.432 144.335C375.034 144.586 374.724 144.918 374.501 145.33C374.284 145.737 374.172 146.184 374.168 146.672V148.185C374.168 148.819 374.284 149.364 374.516 149.818C374.748 150.268 375.072 150.614 375.489 150.855C375.905 151.092 376.393 151.21 376.952 151.21C377.326 151.21 377.664 151.158 377.967 151.054C378.27 150.945 378.533 150.786 378.756 150.578C378.978 150.37 379.146 150.112 379.26 149.804L381.661 150.074C381.509 150.708 381.22 151.262 380.794 151.736C380.373 152.205 379.833 152.569 379.175 152.83C378.517 153.085 377.764 153.213 376.916 153.213ZM383.942 153V142.091H386.435V143.909H386.549C386.748 143.279 387.088 142.794 387.571 142.453C388.059 142.107 388.615 141.935 389.24 141.935C389.382 141.935 389.541 141.942 389.716 141.956C389.896 141.965 390.045 141.982 390.164 142.006V144.371C390.055 144.333 389.882 144.3 389.645 144.271C389.413 144.238 389.188 144.222 388.971 144.222C388.502 144.222 388.08 144.323 387.706 144.527C387.337 144.726 387.046 145.003 386.833 145.358C386.62 145.713 386.513 146.123 386.513 146.587V153H383.942ZM391.985 153V138.455H394.62V150.791H401.027V153H391.985ZM408.029 153.213C406.936 153.213 405.991 152.986 405.196 152.531C404.405 152.072 403.797 151.423 403.37 150.585C402.944 149.742 402.731 148.75 402.731 147.609C402.731 146.487 402.944 145.502 403.37 144.655C403.801 143.803 404.403 143.14 405.174 142.666C405.946 142.188 406.853 141.949 407.895 141.949C408.567 141.949 409.201 142.058 409.798 142.276C410.399 142.489 410.93 142.82 411.389 143.27C411.853 143.72 412.217 144.293 412.483 144.989C412.748 145.68 412.88 146.504 412.88 147.46V148.249H403.939V146.516H410.416C410.411 146.023 410.305 145.585 410.096 145.202C409.888 144.813 409.597 144.508 409.223 144.286C408.853 144.063 408.422 143.952 407.93 143.952C407.404 143.952 406.943 144.08 406.545 144.335C406.147 144.586 405.837 144.918 405.615 145.33C405.397 145.737 405.286 146.184 405.281 146.672V148.185C405.281 148.819 405.397 149.364 405.629 149.818C405.861 150.268 406.185 150.614 406.602 150.855C407.019 151.092 407.506 151.21 408.065 151.21C408.439 151.21 408.778 151.158 409.081 151.054C409.384 150.945 409.646 150.786 409.869 150.578C410.092 150.37 410.26 150.112 410.373 149.804L412.774 150.074C412.622 150.708 412.333 151.262 411.907 151.736C411.486 152.205 410.946 152.569 410.288 152.83C409.63 153.085 408.877 153.213 408.029 153.213ZM418.195 153.22C417.503 153.22 416.881 153.097 416.327 152.851C415.777 152.6 415.342 152.231 415.02 151.743C414.703 151.255 414.544 150.654 414.544 149.939C414.544 149.323 414.658 148.814 414.885 148.412C415.112 148.009 415.422 147.688 415.815 147.446C416.208 147.205 416.651 147.022 417.143 146.899C417.641 146.771 418.154 146.679 418.685 146.622C419.324 146.556 419.842 146.497 420.24 146.445C420.638 146.388 420.927 146.303 421.107 146.189C421.291 146.071 421.384 145.888 421.384 145.642V145.599C421.384 145.064 421.225 144.65 420.908 144.357C420.59 144.063 420.134 143.916 419.537 143.916C418.907 143.916 418.408 144.054 418.038 144.328C417.674 144.603 417.428 144.927 417.3 145.301L414.899 144.96C415.089 144.297 415.401 143.743 415.837 143.298C416.272 142.848 416.805 142.512 417.435 142.29C418.064 142.062 418.76 141.949 419.523 141.949C420.048 141.949 420.571 142.01 421.092 142.134C421.613 142.257 422.089 142.46 422.52 142.744C422.951 143.024 423.296 143.405 423.557 143.888C423.822 144.371 423.955 144.974 423.955 145.699V153H421.483V151.501H421.398C421.241 151.804 421.021 152.089 420.737 152.354C420.458 152.614 420.105 152.825 419.679 152.986C419.258 153.142 418.763 153.22 418.195 153.22ZM418.862 151.331C419.378 151.331 419.826 151.229 420.205 151.026C420.583 150.817 420.875 150.543 421.078 150.202C421.286 149.861 421.391 149.489 421.391 149.087V147.801C421.31 147.867 421.173 147.929 420.979 147.986C420.789 148.043 420.576 148.092 420.339 148.135C420.103 148.178 419.868 148.215 419.636 148.249C419.404 148.282 419.203 148.31 419.033 148.334C418.649 148.386 418.306 148.471 418.003 148.589C417.7 148.708 417.461 148.874 417.286 149.087C417.11 149.295 417.023 149.565 417.023 149.896C417.023 150.37 417.196 150.727 417.541 150.969C417.887 151.21 418.327 151.331 418.862 151.331ZM435.893 142.091L432.009 153H429.168L425.283 142.091H428.024L430.531 150.195H430.645L433.159 142.091H435.893ZM442.131 153.213C441.037 153.213 440.093 152.986 439.297 152.531C438.507 152.072 437.898 151.423 437.472 150.585C437.046 149.742 436.833 148.75 436.833 147.609C436.833 146.487 437.046 145.502 437.472 144.655C437.903 143.803 438.504 143.14 439.276 142.666C440.048 142.188 440.954 141.949 441.996 141.949C442.668 141.949 443.303 142.058 443.9 142.276C444.501 142.489 445.031 142.82 445.49 143.27C445.954 143.72 446.319 144.293 446.584 144.989C446.849 145.68 446.982 146.504 446.982 147.46V148.249H438.04V146.516H444.517C444.513 146.023 444.406 145.585 444.198 145.202C443.989 144.813 443.698 144.508 443.324 144.286C442.955 144.063 442.524 143.952 442.032 143.952C441.506 143.952 441.044 144.08 440.647 144.335C440.249 144.586 439.939 144.918 439.716 145.33C439.498 145.737 439.387 146.184 439.382 146.672V148.185C439.382 148.819 439.498 149.364 439.73 149.818C439.962 150.268 440.287 150.614 440.703 150.855C441.12 151.092 441.608 151.21 442.167 151.21C442.541 151.21 442.879 151.158 443.182 151.054C443.485 150.945 443.748 150.786 443.971 150.578C444.193 150.37 444.361 150.112 444.475 149.804L446.875 150.074C446.724 150.708 446.435 151.262 446.009 151.736C445.587 152.205 445.048 152.569 444.39 152.83C443.731 153.085 442.979 153.213 442.131 153.213Z"
    fill="white" />
</svg>