<svg width="600" height="300" viewBox="0 0 600 300" fill="none" xmlns="http://www.w3.org/2000/svg">
  <rect width="600" height="300" fill="#D9D9D9" />
  <path
    d="M35.0455 178.545V180.818H26V178.545H35.0455ZM28.6364 174.364H31.3182V191C31.3182 191.758 31.428 192.326 31.6477 192.705C31.875 193.076 32.1629 193.326 32.5114 193.455C32.8674 193.576 33.2424 193.636 33.6364 193.636C33.9318 193.636 34.1742 193.621 34.3636 193.591C34.553 193.553 34.7045 193.523 34.8182 193.5L35.3636 195.909C35.1818 195.977 34.928 196.045 34.6023 196.114C34.2765 196.189 33.8636 196.227 33.3636 196.227C32.6061 196.227 31.8636 196.064 31.1364 195.739C30.4167 195.413 29.8182 194.917 29.3409 194.25C28.8712 193.583 28.6364 192.742 28.6364 191.727V174.364ZM45.983 196.364C44.4072 196.364 43.0246 195.989 41.8352 195.239C40.6534 194.489 39.7292 193.439 39.0625 192.091C38.4034 190.742 38.0739 189.167 38.0739 187.364C38.0739 185.545 38.4034 183.958 39.0625 182.602C39.7292 181.246 40.6534 180.193 41.8352 179.443C43.0246 178.693 44.4072 178.318 45.983 178.318C47.5587 178.318 48.9375 178.693 50.1193 179.443C51.3087 180.193 52.233 181.246 52.892 182.602C53.5587 183.958 53.892 185.545 53.892 187.364C53.892 189.167 53.5587 190.742 52.892 192.091C52.233 193.439 51.3087 194.489 50.1193 195.239C48.9375 195.989 47.5587 196.364 45.983 196.364ZM45.983 193.955C47.1799 193.955 48.1648 193.648 48.9375 193.034C49.7102 192.42 50.2822 191.614 50.6534 190.614C51.0246 189.614 51.2102 188.53 51.2102 187.364C51.2102 186.197 51.0246 185.11 50.6534 184.102C50.2822 183.095 49.7102 182.28 48.9375 181.659C48.1648 181.038 47.1799 180.727 45.983 180.727C44.786 180.727 43.8011 181.038 43.0284 181.659C42.2557 182.28 41.6837 183.095 41.3125 184.102C40.9413 185.11 40.7557 186.197 40.7557 187.364C40.7557 188.53 40.9413 189.614 41.3125 190.614C41.6837 191.614 42.2557 192.42 43.0284 193.034C43.8011 193.648 44.786 193.955 45.983 193.955ZM65.0767 196.364C63.5009 196.364 62.1184 195.989 60.929 195.239C59.7472 194.489 58.8229 193.439 58.1562 192.091C57.4972 190.742 57.1676 189.167 57.1676 187.364C57.1676 185.545 57.4972 183.958 58.1562 182.602C58.8229 181.246 59.7472 180.193 60.929 179.443C62.1184 178.693 63.5009 178.318 65.0767 178.318C66.6525 178.318 68.0313 178.693 69.2131 179.443C70.4025 180.193 71.3267 181.246 71.9858 182.602C72.6525 183.958 72.9858 185.545 72.9858 187.364C72.9858 189.167 72.6525 190.742 71.9858 192.091C71.3267 193.439 70.4025 194.489 69.2131 195.239C68.0313 195.989 66.6525 196.364 65.0767 196.364ZM65.0767 193.955C66.2737 193.955 67.2585 193.648 68.0312 193.034C68.804 192.42 69.3759 191.614 69.7472 190.614C70.1184 189.614 70.304 188.53 70.304 187.364C70.304 186.197 70.1184 185.11 69.7472 184.102C69.3759 183.095 68.804 182.28 68.0312 181.659C67.2585 181.038 66.2737 180.727 65.0767 180.727C63.8797 180.727 62.8949 181.038 62.1222 181.659C61.3494 182.28 60.7775 183.095 60.4062 184.102C60.035 185.11 59.8494 186.197 59.8494 187.364C59.8494 188.53 60.035 189.614 60.4062 190.614C60.7775 191.614 61.3494 192.42 62.1222 193.034C62.8949 193.648 63.8797 193.955 65.0767 193.955ZM79.7614 172.727V196H77.0795V172.727H79.7614ZM92.2642 178.545V180.818H83.2188V178.545H92.2642ZM85.8551 174.364H88.5369V191C88.5369 191.758 88.6468 192.326 88.8665 192.705C89.0938 193.076 89.3816 193.326 89.7301 193.455C90.0862 193.576 90.4612 193.636 90.8551 193.636C91.1506 193.636 91.393 193.621 91.5824 193.591C91.7718 193.553 91.9233 193.523 92.0369 193.5L92.5824 195.909C92.4006 195.977 92.1468 196.045 91.821 196.114C91.4953 196.189 91.0824 196.227 90.5824 196.227C89.8248 196.227 89.0824 196.064 88.3551 195.739C87.6354 195.413 87.0369 194.917 86.5597 194.25C86.09 193.583 85.8551 192.742 85.8551 191.727V174.364ZM96.2983 196V178.545H98.9801V196H96.2983ZM97.6619 175.636C97.1392 175.636 96.6884 175.458 96.3097 175.102C95.9384 174.746 95.7528 174.318 95.7528 173.818C95.7528 173.318 95.9384 172.89 96.3097 172.534C96.6884 172.178 97.1392 172 97.6619 172C98.1847 172 98.6316 172.178 99.0028 172.534C99.3816 172.89 99.571 173.318 99.571 173.818C99.571 174.318 99.3816 174.746 99.0028 175.102C98.6316 175.458 98.1847 175.636 97.6619 175.636ZM103.892 202.545V178.545H106.483V181.318H106.801C106.998 181.015 107.271 180.629 107.619 180.159C107.975 179.682 108.483 179.258 109.142 178.886C109.809 178.508 110.71 178.318 111.847 178.318C113.316 178.318 114.612 178.686 115.733 179.42C116.854 180.155 117.729 181.197 118.358 182.545C118.987 183.894 119.301 185.485 119.301 187.318C119.301 189.167 118.987 190.769 118.358 192.125C117.729 193.473 116.858 194.519 115.744 195.261C114.631 195.996 113.347 196.364 111.892 196.364C110.771 196.364 109.873 196.178 109.199 195.807C108.525 195.428 108.006 195 107.642 194.523C107.278 194.038 106.998 193.636 106.801 193.318H106.574V202.545H103.892ZM106.528 187.273C106.528 188.591 106.722 189.754 107.108 190.761C107.494 191.761 108.059 192.545 108.801 193.114C109.544 193.674 110.453 193.955 111.528 193.955C112.65 193.955 113.585 193.659 114.335 193.068C115.093 192.47 115.661 191.667 116.04 190.659C116.426 189.644 116.619 188.515 116.619 187.273C116.619 186.045 116.43 184.939 116.051 183.955C115.68 182.962 115.116 182.178 114.358 181.602C113.608 181.019 112.665 180.727 111.528 180.727C110.438 180.727 109.521 181.004 108.778 181.557C108.036 182.102 107.475 182.867 107.097 183.852C106.718 184.83 106.528 185.97 106.528 187.273ZM139.483 196.364C137.907 196.364 136.525 195.989 135.335 195.239C134.153 194.489 133.229 193.439 132.562 192.091C131.903 190.742 131.574 189.167 131.574 187.364C131.574 185.545 131.903 183.958 132.562 182.602C133.229 181.246 134.153 180.193 135.335 179.443C136.525 178.693 137.907 178.318 139.483 178.318C141.059 178.318 142.438 178.693 143.619 179.443C144.809 180.193 145.733 181.246 146.392 182.602C147.059 183.958 147.392 185.545 147.392 187.364C147.392 189.167 147.059 190.742 146.392 192.091C145.733 193.439 144.809 194.489 143.619 195.239C142.438 195.989 141.059 196.364 139.483 196.364ZM139.483 193.955C140.68 193.955 141.665 193.648 142.438 193.034C143.21 192.42 143.782 191.614 144.153 190.614C144.525 189.614 144.71 188.53 144.71 187.364C144.71 186.197 144.525 185.11 144.153 184.102C143.782 183.095 143.21 182.28 142.438 181.659C141.665 181.038 140.68 180.727 139.483 180.727C138.286 180.727 137.301 181.038 136.528 181.659C135.756 182.28 135.184 183.095 134.812 184.102C134.441 185.11 134.256 186.197 134.256 187.364C134.256 188.53 134.441 189.614 134.812 190.614C135.184 191.614 135.756 192.42 136.528 193.034C137.301 193.648 138.286 193.955 139.483 193.955ZM151.486 202.545V178.545H154.077V181.318H154.395C154.592 181.015 154.865 180.629 155.213 180.159C155.569 179.682 156.077 179.258 156.736 178.886C157.402 178.508 158.304 178.318 159.44 178.318C160.91 178.318 162.205 178.686 163.327 179.42C164.448 180.155 165.323 181.197 165.952 182.545C166.58 183.894 166.895 185.485 166.895 187.318C166.895 189.167 166.58 190.769 165.952 192.125C165.323 193.473 164.452 194.519 163.338 195.261C162.224 195.996 160.94 196.364 159.486 196.364C158.365 196.364 157.467 196.178 156.793 195.807C156.118 195.428 155.599 195 155.236 194.523C154.872 194.038 154.592 193.636 154.395 193.318H154.168V202.545H151.486ZM154.122 187.273C154.122 188.591 154.315 189.754 154.702 190.761C155.088 191.761 155.652 192.545 156.395 193.114C157.137 193.674 158.046 193.955 159.122 193.955C160.243 193.955 161.179 193.659 161.929 193.068C162.687 192.47 163.255 191.667 163.634 190.659C164.02 189.644 164.213 188.515 164.213 187.273C164.213 186.045 164.024 184.939 163.645 183.955C163.274 182.962 162.709 182.178 161.952 181.602C161.202 181.019 160.259 180.727 159.122 180.727C158.031 180.727 157.115 181.004 156.372 181.557C155.63 182.102 155.069 182.867 154.69 183.852C154.312 184.83 154.122 185.97 154.122 187.273ZM178.304 196.364C176.622 196.364 175.171 195.992 173.952 195.25C172.74 194.5 171.804 193.455 171.145 192.114C170.493 190.765 170.168 189.197 170.168 187.409C170.168 185.621 170.493 184.045 171.145 182.682C171.804 181.311 172.721 180.242 173.895 179.477C175.077 178.705 176.455 178.318 178.031 178.318C178.94 178.318 179.838 178.47 180.724 178.773C181.611 179.076 182.418 179.568 183.145 180.25C183.872 180.924 184.452 181.818 184.884 182.932C185.315 184.045 185.531 185.417 185.531 187.045V188.182H172.077V185.864H182.804C182.804 184.879 182.607 184 182.213 183.227C181.827 182.455 181.274 181.845 180.554 181.398C179.842 180.951 179.001 180.727 178.031 180.727C176.963 180.727 176.039 180.992 175.259 181.523C174.486 182.045 173.891 182.727 173.474 183.568C173.058 184.409 172.849 185.311 172.849 186.273V187.818C172.849 189.136 173.077 190.254 173.531 191.17C173.993 192.08 174.634 192.773 175.452 193.25C176.27 193.72 177.221 193.955 178.304 193.955C179.009 193.955 179.645 193.856 180.213 193.659C180.789 193.455 181.285 193.152 181.702 192.75C182.118 192.341 182.44 191.833 182.668 191.227L185.259 191.955C184.986 192.833 184.527 193.606 183.884 194.273C183.24 194.932 182.444 195.447 181.497 195.818C180.55 196.182 179.486 196.364 178.304 196.364ZM192.293 185.5V196H189.611V178.545H192.202V181.273H192.429C192.838 180.386 193.459 179.674 194.293 179.136C195.126 178.591 196.202 178.318 197.52 178.318C198.702 178.318 199.736 178.561 200.622 179.045C201.509 179.523 202.198 180.25 202.69 181.227C203.183 182.197 203.429 183.424 203.429 184.909V196H200.747V185.091C200.747 183.72 200.391 182.652 199.679 181.886C198.967 181.114 197.99 180.727 196.747 180.727C195.891 180.727 195.126 180.913 194.452 181.284C193.785 181.655 193.259 182.197 192.872 182.909C192.486 183.621 192.293 184.485 192.293 185.5ZM220.011 185.5V196H217.33V172.727H220.011V181.273H220.239C220.648 180.371 221.261 179.655 222.08 179.125C222.905 178.587 224.004 178.318 225.375 178.318C226.564 178.318 227.606 178.557 228.5 179.034C229.394 179.504 230.087 180.227 230.58 181.205C231.08 182.174 231.33 183.409 231.33 184.909V196H228.648V185.091C228.648 183.705 228.288 182.633 227.568 181.875C226.856 181.11 225.867 180.727 224.602 180.727C223.723 180.727 222.936 180.913 222.239 181.284C221.549 181.655 221.004 182.197 220.602 182.909C220.208 183.621 220.011 184.485 220.011 185.5ZM243.554 196.364C241.872 196.364 240.421 195.992 239.202 195.25C237.99 194.5 237.054 193.455 236.395 192.114C235.743 190.765 235.418 189.197 235.418 187.409C235.418 185.621 235.743 184.045 236.395 182.682C237.054 181.311 237.971 180.242 239.145 179.477C240.327 178.705 241.705 178.318 243.281 178.318C244.19 178.318 245.088 178.47 245.974 178.773C246.861 179.076 247.668 179.568 248.395 180.25C249.122 180.924 249.702 181.818 250.134 182.932C250.565 184.045 250.781 185.417 250.781 187.045V188.182H237.327V185.864H248.054C248.054 184.879 247.857 184 247.463 183.227C247.077 182.455 246.524 181.845 245.804 181.398C245.092 180.951 244.251 180.727 243.281 180.727C242.213 180.727 241.289 180.992 240.509 181.523C239.736 182.045 239.141 182.727 238.724 183.568C238.308 184.409 238.099 185.311 238.099 186.273V187.818C238.099 189.136 238.327 190.254 238.781 191.17C239.243 192.08 239.884 192.773 240.702 193.25C241.52 193.72 242.471 193.955 243.554 193.955C244.259 193.955 244.895 193.856 245.463 193.659C246.039 193.455 246.535 193.152 246.952 192.75C247.368 192.341 247.69 191.833 247.918 191.227L250.509 191.955C250.236 192.833 249.777 193.606 249.134 194.273C248.49 194.932 247.694 195.447 246.747 195.818C245.8 196.182 244.736 196.364 243.554 196.364ZM254.861 196V178.545H257.452V181.182H257.634C257.952 180.318 258.527 179.617 259.361 179.08C260.194 178.542 261.134 178.273 262.179 178.273C262.376 178.273 262.622 178.277 262.918 178.284C263.213 178.292 263.437 178.303 263.588 178.318V181.045C263.497 181.023 263.289 180.989 262.963 180.943C262.645 180.89 262.308 180.864 261.952 180.864C261.103 180.864 260.346 181.042 259.679 181.398C259.02 181.746 258.497 182.231 258.111 182.852C257.732 183.466 257.543 184.167 257.543 184.955V196H254.861ZM273.554 196.364C271.872 196.364 270.421 195.992 269.202 195.25C267.99 194.5 267.054 193.455 266.395 192.114C265.743 190.765 265.418 189.197 265.418 187.409C265.418 185.621 265.743 184.045 266.395 182.682C267.054 181.311 267.971 180.242 269.145 179.477C270.327 178.705 271.705 178.318 273.281 178.318C274.19 178.318 275.088 178.47 275.974 178.773C276.861 179.076 277.668 179.568 278.395 180.25C279.122 180.924 279.702 181.818 280.134 182.932C280.565 184.045 280.781 185.417 280.781 187.045V188.182H267.327V185.864H278.054C278.054 184.879 277.857 184 277.463 183.227C277.077 182.455 276.524 181.845 275.804 181.398C275.092 180.951 274.251 180.727 273.281 180.727C272.213 180.727 271.289 180.992 270.509 181.523C269.736 182.045 269.141 182.727 268.724 183.568C268.308 184.409 268.099 185.311 268.099 186.273V187.818C268.099 189.136 268.327 190.254 268.781 191.17C269.243 192.08 269.884 192.773 270.702 193.25C271.52 193.72 272.471 193.955 273.554 193.955C274.259 193.955 274.895 193.856 275.463 193.659C276.039 193.455 276.535 193.152 276.952 192.75C277.368 192.341 277.69 191.833 277.918 191.227L280.509 191.955C280.236 192.833 279.777 193.606 279.134 194.273C278.49 194.932 277.694 195.447 276.747 195.818C275.8 196.182 274.736 196.364 273.554 196.364ZM297.406 172.727L297.179 189.455H294.543L294.315 172.727H297.406ZM295.861 196.182C295.3 196.182 294.819 195.981 294.418 195.58C294.016 195.178 293.815 194.697 293.815 194.136C293.815 193.576 294.016 193.095 294.418 192.693C294.819 192.292 295.3 192.091 295.861 192.091C296.421 192.091 296.902 192.292 297.304 192.693C297.705 193.095 297.906 193.576 297.906 194.136C297.906 194.508 297.812 194.848 297.622 195.159C297.44 195.47 297.194 195.72 296.884 195.909C296.58 196.091 296.24 196.182 295.861 196.182Z"
    fill="#333333" />
  <line x1="216" y1="204.5" x2="281" y2="204.5" stroke="#333333" stroke-width="3" stroke-dasharray="6 6" />
  <path d="M247 160L219.287 112L274.713 112L247 160Z" fill="white" />
  <path
    d="M135 82C135 77.5817 138.582 74 143 74H352C356.418 74 360 77.5817 360 82V137C360 141.418 356.418 145 352 145H143C138.582 145 135 141.418 135 137V82Z"
    fill="white" />
  <path
    d="M198.499 120.364C196.862 120.364 195.453 119.977 194.271 119.205C193.089 118.432 192.18 117.367 191.544 116.011C190.908 114.655 190.589 113.106 190.589 111.364C190.589 109.591 190.915 108.027 191.567 106.67C192.226 105.307 193.143 104.242 194.317 103.477C195.499 102.705 196.877 102.318 198.453 102.318C199.68 102.318 200.786 102.545 201.771 103C202.756 103.455 203.563 104.091 204.192 104.909C204.821 105.727 205.211 106.682 205.362 107.773H202.68C202.476 106.977 202.021 106.273 201.317 105.659C200.62 105.038 199.68 104.727 198.499 104.727C197.453 104.727 196.536 105 195.749 105.545C194.968 106.083 194.358 106.845 193.919 107.83C193.487 108.807 193.271 109.955 193.271 111.273C193.271 112.621 193.483 113.795 193.908 114.795C194.339 115.795 194.946 116.572 195.726 117.125C196.514 117.678 197.438 117.955 198.499 117.955C199.196 117.955 199.828 117.833 200.396 117.591C200.964 117.348 201.446 117 201.839 116.545C202.233 116.091 202.514 115.545 202.68 114.909H205.362C205.211 115.939 204.836 116.867 204.237 117.693C203.646 118.511 202.862 119.163 201.885 119.648C200.915 120.125 199.786 120.364 198.499 120.364ZM216.374 120.364C214.798 120.364 213.415 119.989 212.226 119.239C211.044 118.489 210.12 117.439 209.453 116.091C208.794 114.742 208.464 113.167 208.464 111.364C208.464 109.545 208.794 107.958 209.453 106.602C210.12 105.246 211.044 104.193 212.226 103.443C213.415 102.693 214.798 102.318 216.374 102.318C217.949 102.318 219.328 102.693 220.51 103.443C221.699 104.193 222.624 105.246 223.283 106.602C223.949 107.958 224.283 109.545 224.283 111.364C224.283 113.167 223.949 114.742 223.283 116.091C222.624 117.439 221.699 118.489 220.51 119.239C219.328 119.989 217.949 120.364 216.374 120.364ZM216.374 117.955C217.571 117.955 218.555 117.648 219.328 117.034C220.101 116.42 220.673 115.614 221.044 114.614C221.415 113.614 221.601 112.53 221.601 111.364C221.601 110.197 221.415 109.11 221.044 108.102C220.673 107.095 220.101 106.28 219.328 105.659C218.555 105.038 217.571 104.727 216.374 104.727C215.177 104.727 214.192 105.038 213.419 105.659C212.646 106.28 212.074 107.095 211.703 108.102C211.332 109.11 211.146 110.197 211.146 111.364C211.146 112.53 211.332 113.614 211.703 114.614C212.074 115.614 212.646 116.42 213.419 117.034C214.192 117.648 215.177 117.955 216.374 117.955ZM231.058 109.5V120H228.376V102.545H230.967V105.273H231.195C231.604 104.386 232.225 103.674 233.058 103.136C233.892 102.591 234.967 102.318 236.286 102.318C237.467 102.318 238.501 102.561 239.388 103.045C240.274 103.523 240.964 104.25 241.456 105.227C241.948 106.197 242.195 107.424 242.195 108.909V120H239.513V109.091C239.513 107.72 239.157 106.652 238.445 105.886C237.732 105.114 236.755 104.727 235.513 104.727C234.657 104.727 233.892 104.913 233.217 105.284C232.551 105.655 232.024 106.197 231.638 106.909C231.251 107.621 231.058 108.485 231.058 109.5ZM254.686 102.545V104.818H245.641V102.545H254.686ZM248.277 98.3636H250.959V115C250.959 115.758 251.069 116.326 251.288 116.705C251.516 117.076 251.804 117.326 252.152 117.455C252.508 117.576 252.883 117.636 253.277 117.636C253.572 117.636 253.815 117.621 254.004 117.591C254.194 117.553 254.345 117.523 254.459 117.5L255.004 119.909C254.822 119.977 254.569 120.045 254.243 120.114C253.917 120.189 253.504 120.227 253.004 120.227C252.247 120.227 251.504 120.064 250.777 119.739C250.057 119.413 249.459 118.917 248.982 118.25C248.512 117.583 248.277 116.742 248.277 115.727V98.3636ZM265.851 120.364C264.169 120.364 262.718 119.992 261.499 119.25C260.286 118.5 259.351 117.455 258.692 116.114C258.04 114.765 257.714 113.197 257.714 111.409C257.714 109.621 258.04 108.045 258.692 106.682C259.351 105.311 260.268 104.242 261.442 103.477C262.624 102.705 264.002 102.318 265.578 102.318C266.487 102.318 267.385 102.47 268.271 102.773C269.158 103.076 269.964 103.568 270.692 104.25C271.419 104.924 271.999 105.818 272.43 106.932C272.862 108.045 273.078 109.417 273.078 111.045V112.182H259.624V109.864H270.351C270.351 108.879 270.154 108 269.76 107.227C269.374 106.455 268.821 105.845 268.101 105.398C267.389 104.951 266.548 104.727 265.578 104.727C264.51 104.727 263.586 104.992 262.805 105.523C262.033 106.045 261.438 106.727 261.021 107.568C260.605 108.409 260.396 109.311 260.396 110.273V111.818C260.396 113.136 260.624 114.254 261.078 115.17C261.54 116.08 262.18 116.773 262.999 117.25C263.817 117.72 264.768 117.955 265.851 117.955C266.555 117.955 267.192 117.856 267.76 117.659C268.336 117.455 268.832 117.152 269.249 116.75C269.665 116.341 269.987 115.833 270.214 115.227L272.805 115.955C272.533 116.833 272.074 117.606 271.43 118.273C270.786 118.932 269.991 119.447 269.044 119.818C268.097 120.182 267.033 120.364 265.851 120.364ZM279.839 109.5V120H277.158V102.545H279.749V105.273H279.976C280.385 104.386 281.006 103.674 281.839 103.136C282.673 102.591 283.749 102.318 285.067 102.318C286.249 102.318 287.283 102.561 288.169 103.045C289.055 103.523 289.745 104.25 290.237 105.227C290.73 106.197 290.976 107.424 290.976 108.909V120H288.294V109.091C288.294 107.72 287.938 106.652 287.226 105.886C286.514 105.114 285.536 104.727 284.294 104.727C283.438 104.727 282.673 104.913 281.999 105.284C281.332 105.655 280.805 106.197 280.419 106.909C280.033 107.621 279.839 108.485 279.839 109.5ZM303.467 102.545V104.818H294.422V102.545H303.467ZM297.058 98.3636H299.74V115C299.74 115.758 299.85 116.326 300.07 116.705C300.297 117.076 300.585 117.326 300.933 117.455C301.289 117.576 301.664 117.636 302.058 117.636C302.354 117.636 302.596 117.621 302.786 117.591C302.975 117.553 303.126 117.523 303.24 117.5L303.786 119.909C303.604 119.977 303.35 120.045 303.024 120.114C302.698 120.189 302.286 120.227 301.786 120.227C301.028 120.227 300.286 120.064 299.558 119.739C298.839 119.413 298.24 118.917 297.763 118.25C297.293 117.583 297.058 116.742 297.058 115.727V98.3636Z"
    fill="#333333" />
  <rect x="208.5" y="161.5" width="79" height="52" stroke="#066EBA" stroke-width="3" />
  <rect x="126.5" y="66.5" width="240" height="86" stroke="#40BA06" stroke-width="3" />
  <rect x="119.5" y="58.5" width="258" height="160" stroke="#BA0606" stroke-width="3" />
  <path
    d="M335.574 207.273C334.826 207.627 334.507 208.522 334.861 209.271L340.644 221.47C340.999 222.218 341.893 222.537 342.642 222.182C343.39 221.828 343.709 220.933 343.355 220.185L338.215 209.341L349.058 204.201C349.807 203.846 350.126 202.952 349.771 202.203C349.417 201.455 348.522 201.136 347.773 201.49L335.574 207.273ZM340.512 272.304C339.78 272.693 339.503 273.602 339.893 274.333C340.282 275.064 341.19 275.341 341.922 274.952L340.512 272.304ZM336.217 208.628C335.713 210.041 335.712 210.041 335.712 210.04C335.712 210.04 335.712 210.04 335.711 210.04C335.711 210.04 335.711 210.04 335.712 210.041C335.713 210.041 335.715 210.042 335.719 210.043C335.726 210.045 335.737 210.05 335.754 210.056C335.787 210.068 335.84 210.088 335.91 210.115C336.051 210.17 336.264 210.255 336.541 210.372C337.094 210.606 337.9 210.966 338.888 211.467C340.867 212.468 343.569 214.025 346.441 216.235C352.188 220.656 358.559 227.647 361.266 238.007L364.168 237.249C361.244 226.056 354.365 218.547 348.27 213.857C345.221 211.511 342.353 209.858 340.243 208.79C339.187 208.256 338.319 207.866 337.708 207.608C337.403 207.479 337.162 207.383 336.995 207.318C336.911 207.286 336.846 207.261 336.8 207.244C336.777 207.236 336.759 207.229 336.745 207.224C336.739 207.222 336.734 207.22 336.729 207.218C336.727 207.218 336.726 207.217 336.724 207.216C336.724 207.216 336.723 207.216 336.722 207.216C336.722 207.216 336.721 207.215 336.217 208.628ZM361.266 238.007C363.885 248.033 358.934 256.512 352.998 262.669C350.048 265.729 346.917 268.145 344.517 269.799C343.319 270.624 342.309 271.255 341.601 271.678C341.248 271.889 340.971 272.048 340.784 272.153C340.691 272.206 340.62 272.245 340.574 272.27C340.551 272.283 340.534 272.292 340.524 272.297C340.519 272.3 340.515 272.302 340.513 272.303C340.512 272.304 340.511 272.304 340.511 272.304C340.511 272.304 340.511 272.304 340.511 272.304C340.511 272.304 340.512 272.304 341.217 273.628C341.922 274.952 341.922 274.952 341.923 274.951C341.923 274.951 341.924 274.951 341.925 274.95C341.926 274.95 341.928 274.949 341.93 274.947C341.935 274.945 341.941 274.942 341.949 274.938C341.964 274.929 341.986 274.917 342.014 274.902C342.071 274.871 342.152 274.826 342.256 274.768C342.464 274.651 342.764 274.478 343.141 274.252C343.896 273.801 344.961 273.135 346.219 272.269C348.729 270.54 352.029 267.997 355.158 264.751C361.381 258.296 367.18 248.776 364.168 237.249L361.266 238.007Z"
    fill="#333333" />
  <path
    d="M217.053 170.869C217.749 170.42 217.949 169.491 217.499 168.795L210.177 157.454C209.728 156.758 208.799 156.558 208.103 157.007C207.407 157.456 207.208 158.385 207.657 159.081L214.165 169.162L204.084 175.671C203.388 176.12 203.188 177.049 203.637 177.745C204.086 178.441 205.015 178.641 205.711 178.191L217.053 170.869ZM173.701 131.106C174.057 130.358 173.74 129.463 172.992 129.106C172.245 128.749 171.349 129.066 170.993 129.814L173.701 131.106ZM216.239 169.609C216.555 168.143 216.555 168.143 216.556 168.143C216.556 168.143 216.556 168.143 216.556 168.143C216.557 168.143 216.557 168.143 216.557 168.143C216.556 168.143 216.555 168.143 216.552 168.142C216.548 168.141 216.539 168.139 216.526 168.136C216.501 168.13 216.46 168.121 216.404 168.107C216.292 168.08 216.12 168.036 215.892 167.974C215.438 167.849 214.763 167.649 213.906 167.355C212.191 166.765 209.749 165.797 206.883 164.29C201.151 161.278 193.731 156.118 187.029 147.537L184.665 149.383C191.674 158.358 199.45 163.773 205.487 166.946C208.505 168.532 211.09 169.559 212.931 170.192C213.852 170.508 214.587 170.726 215.098 170.867C215.354 170.937 215.554 170.988 215.693 171.022C215.763 171.039 215.817 171.051 215.855 171.06C215.875 171.065 215.89 171.068 215.901 171.071C215.907 171.072 215.912 171.073 215.915 171.074C215.917 171.074 215.919 171.074 215.92 171.075C215.921 171.075 215.921 171.075 215.922 171.075C215.923 171.075 215.923 171.075 216.239 169.609ZM187.029 147.537C180.176 138.762 176.815 134.281 175.172 131.999C174.347 130.855 173.971 130.286 173.805 130.017C173.719 129.877 173.713 129.855 173.731 129.895C173.738 129.911 173.777 129.996 173.807 130.121C173.822 130.185 173.844 130.298 173.846 130.442C173.847 130.517 173.843 130.612 173.824 130.721C173.814 130.776 173.8 130.836 173.78 130.901C173.771 130.933 173.759 130.966 173.746 131.001C173.739 131.018 173.728 131.044 173.725 131.053C173.713 131.079 173.701 131.106 172.347 130.46C170.993 129.814 170.98 129.841 170.969 129.867C170.965 129.876 170.954 129.902 170.947 129.919C170.934 129.954 170.923 129.987 170.913 130.019C170.893 130.084 170.879 130.144 170.869 130.2C170.85 130.309 170.846 130.406 170.847 130.481C170.849 130.628 170.872 130.746 170.889 130.817C170.922 130.957 170.969 131.069 170.998 131.131C171.058 131.264 171.142 131.414 171.25 131.59C171.474 131.953 171.901 132.592 172.738 133.753C174.416 136.083 177.806 140.601 184.665 149.383L187.029 147.537Z"
    fill="#333333" />
  <path
    d="M326.257 130.359C325.903 129.61 325.009 129.29 324.26 129.644L312.053 135.409C311.304 135.763 310.984 136.657 311.338 137.406C311.691 138.155 312.585 138.475 313.334 138.122L324.185 132.997L329.31 143.848C329.664 144.597 330.558 144.917 331.307 144.563C332.056 144.21 332.376 143.315 332.023 142.566L326.257 130.359ZM281.133 168.1C280.439 167.648 279.51 167.845 279.058 168.539C278.606 169.233 278.802 170.162 279.497 170.614L281.133 168.1ZM324.901 131C323.489 130.494 323.489 130.493 323.489 130.493C323.489 130.493 323.489 130.492 323.489 130.492C323.49 130.492 323.49 130.492 323.489 130.492C323.489 130.493 323.489 130.494 323.488 130.496C323.486 130.501 323.483 130.509 323.479 130.522C323.469 130.546 323.455 130.585 323.434 130.639C323.392 130.747 323.326 130.911 323.234 131.128C323.051 131.562 322.764 132.205 322.359 133.016C321.549 134.638 320.268 136.932 318.397 139.575C314.656 144.86 308.564 151.536 299.176 157.051L300.695 159.637C310.515 153.87 316.906 146.874 320.846 141.308C322.815 138.525 324.174 136.098 325.043 134.356C325.478 133.485 325.791 132.785 325.998 132.296C326.101 132.052 326.178 131.861 326.229 131.727C326.255 131.66 326.275 131.608 326.289 131.571C326.296 131.553 326.301 131.538 326.305 131.527C326.307 131.522 326.309 131.517 326.31 131.514C326.311 131.512 326.311 131.51 326.312 131.509C326.312 131.509 326.312 131.508 326.312 131.507C326.313 131.507 326.313 131.506 324.901 131ZM299.176 157.051C289.576 162.689 284.691 165.43 282.213 166.759C280.97 167.426 280.356 167.725 280.068 167.853C279.918 167.92 279.895 167.923 279.937 167.911C279.954 167.906 280.043 167.878 280.171 167.865C280.237 167.859 280.352 167.851 280.495 167.868C280.569 167.877 280.662 167.894 280.768 167.927C280.821 167.944 280.879 167.966 280.941 167.994C280.971 168.008 281.003 168.024 281.035 168.041C281.051 168.05 281.076 168.064 281.084 168.069C281.109 168.084 281.133 168.1 280.315 169.357C279.497 170.614 279.521 170.63 279.546 170.645C279.554 170.65 279.579 170.664 279.595 170.673C279.627 170.691 279.659 170.707 279.689 170.721C279.751 170.749 279.809 170.771 279.863 170.787C279.969 170.821 280.063 170.838 280.139 170.847C280.284 170.864 280.404 170.857 280.477 170.85C280.621 170.835 280.737 170.803 280.803 170.783C280.943 170.741 281.102 170.677 281.291 170.593C281.68 170.419 282.37 170.079 283.631 169.403C286.161 168.046 291.087 165.281 300.695 159.637L299.176 157.051Z"
    fill="#333333" />
  <path
    d="M150.466 275.789C151.288 275.687 151.872 274.937 151.77 274.115L150.105 260.718C150.003 259.896 149.254 259.313 148.432 259.415C147.609 259.517 147.026 260.266 147.128 261.088L148.608 272.997L136.699 274.476C135.877 274.578 135.293 275.328 135.395 276.15C135.498 276.972 136.247 277.555 137.069 277.453L150.466 275.789ZM160.492 212.484C161.317 212.411 161.928 211.684 161.855 210.858C161.783 210.033 161.056 209.423 160.23 209.495L160.492 212.484ZM150.281 274.3C151.203 273.117 151.203 273.117 151.203 273.117C151.203 273.117 151.203 273.117 151.203 273.117C151.203 273.117 151.202 273.116 151.201 273.115C151.198 273.113 151.194 273.11 151.188 273.105C151.177 273.096 151.158 273.082 151.134 273.062C151.085 273.023 151.01 272.964 150.913 272.885C150.717 272.726 150.428 272.488 150.062 272.176C149.33 271.553 148.29 270.637 147.071 269.475C144.629 267.147 141.488 263.851 138.663 259.96C132.943 252.082 128.871 242.284 133.484 233.143L130.806 231.792C125.382 242.538 130.378 253.656 136.235 261.723C139.199 265.805 142.474 269.238 145.001 271.646C146.266 272.852 147.349 273.806 148.118 274.461C148.503 274.788 148.809 275.041 149.021 275.213C149.128 275.299 149.21 275.366 149.267 275.411C149.296 275.434 149.318 275.451 149.333 275.463C149.341 275.469 149.347 275.474 149.351 275.477C149.353 275.479 149.355 275.48 149.357 275.481C149.357 275.482 149.358 275.483 149.358 275.483C149.359 275.483 149.359 275.484 150.281 274.3ZM133.484 233.143C138.334 223.534 145.126 218.378 150.685 215.614C153.47 214.229 155.95 213.443 157.724 213.005C158.61 212.786 159.318 212.654 159.796 212.578C160.036 212.54 160.218 212.515 160.336 212.501C160.395 212.494 160.438 212.489 160.464 212.486C160.477 212.485 160.486 212.484 160.491 212.484C160.493 212.483 160.494 212.483 160.495 212.483C160.495 212.483 160.495 212.483 160.494 212.483C160.494 212.483 160.493 212.483 160.493 212.483C160.493 212.484 160.492 212.484 160.361 210.989C160.23 209.495 160.229 209.495 160.229 209.495C160.228 209.495 160.227 209.495 160.226 209.495C160.225 209.495 160.223 209.496 160.221 209.496C160.217 209.496 160.211 209.497 160.205 209.497C160.192 209.499 160.175 209.5 160.153 209.503C160.11 209.507 160.05 209.514 159.973 209.523C159.82 209.542 159.602 209.571 159.324 209.615C158.77 209.704 157.979 209.852 157.004 210.092C155.055 210.574 152.363 211.429 149.349 212.928C143.309 215.931 135.993 221.514 130.806 231.792L133.484 233.143Z"
    fill="#333333" />
  <rect x="298" y="146" width="64.9519" height="23" fill="#333333" />
  <path
    d="M321.28 151.902V163.538H319.405L313.922 155.612H313.825V163.538H311.717V151.902H313.603L319.081 159.834H319.183V151.902H321.28ZM327.292 163.709C326.44 163.709 325.701 163.521 325.076 163.146C324.451 162.771 323.967 162.247 323.622 161.573C323.281 160.898 323.111 160.11 323.111 159.209C323.111 158.307 323.281 157.518 323.622 156.84C323.967 156.162 324.451 155.635 325.076 155.26C325.701 154.885 326.44 154.698 327.292 154.698C328.145 154.698 328.883 154.885 329.508 155.26C330.133 155.635 330.616 156.162 330.957 156.84C331.302 157.518 331.474 158.307 331.474 159.209C331.474 160.11 331.302 160.898 330.957 161.573C330.616 162.247 330.133 162.771 329.508 163.146C328.883 163.521 328.145 163.709 327.292 163.709ZM327.304 162.061C327.766 162.061 328.152 161.934 328.463 161.68C328.773 161.423 329.004 161.078 329.156 160.646C329.311 160.215 329.389 159.734 329.389 159.203C329.389 158.669 329.311 158.186 329.156 157.754C329.004 157.319 328.773 156.972 328.463 156.715C328.152 156.457 327.766 156.328 327.304 156.328C326.83 156.328 326.436 156.457 326.122 156.715C325.811 156.972 325.578 157.319 325.423 157.754C325.271 158.186 325.196 158.669 325.196 159.203C325.196 159.734 325.271 160.215 325.423 160.646C325.578 161.078 325.811 161.423 326.122 161.68C326.436 161.934 326.83 162.061 327.304 162.061ZM335.277 158.425V163.538H333.22V154.811H335.186V156.294H335.288C335.489 155.805 335.809 155.417 336.248 155.129C336.691 154.841 337.239 154.698 337.89 154.698C338.493 154.698 339.017 154.826 339.464 155.084C339.915 155.341 340.263 155.715 340.51 156.203C340.76 156.692 340.883 157.285 340.879 157.982V163.538H338.822V158.3C338.822 157.716 338.671 157.26 338.368 156.93C338.068 156.601 337.654 156.436 337.123 156.436C336.763 156.436 336.443 156.516 336.163 156.675C335.887 156.83 335.669 157.055 335.51 157.351C335.354 157.646 335.277 158.004 335.277 158.425ZM346.834 163.709C345.959 163.709 345.203 163.527 344.566 163.163C343.934 162.796 343.447 162.277 343.106 161.607C342.765 160.932 342.595 160.139 342.595 159.226C342.595 158.328 342.765 157.54 343.106 156.862C343.451 156.18 343.932 155.65 344.549 155.271C345.167 154.889 345.892 154.698 346.726 154.698C347.263 154.698 347.771 154.785 348.248 154.959C348.729 155.129 349.154 155.395 349.521 155.754C349.892 156.114 350.184 156.573 350.396 157.129C350.608 157.682 350.714 158.341 350.714 159.107V159.737H343.561V158.351H348.743C348.739 157.957 348.654 157.607 348.487 157.3C348.32 156.989 348.087 156.745 347.788 156.567C347.493 156.389 347.148 156.3 346.754 156.3C346.334 156.3 345.964 156.402 345.646 156.607C345.328 156.807 345.08 157.073 344.902 157.402C344.727 157.728 344.638 158.086 344.635 158.476V159.686C344.635 160.194 344.727 160.629 344.913 160.993C345.099 161.353 345.358 161.629 345.691 161.823C346.025 162.012 346.415 162.107 346.862 162.107C347.161 162.107 347.432 162.065 347.674 161.982C347.917 161.895 348.127 161.768 348.305 161.601C348.483 161.434 348.618 161.228 348.709 160.982L350.629 161.198C350.508 161.705 350.277 162.148 349.936 162.527C349.599 162.902 349.167 163.194 348.64 163.402C348.114 163.607 347.512 163.709 346.834 163.709Z"
    fill="white" />
  <rect x="262" y="232" width="137" height="27" fill="#333333" />
  <path
    d="M270.435 253V238.455H275.889C277.007 238.455 277.944 238.663 278.702 239.08C279.464 239.496 280.039 240.069 280.428 240.798C280.821 241.523 281.017 242.347 281.017 243.27C281.017 244.203 280.821 245.031 280.428 245.756C280.035 246.48 279.455 247.051 278.688 247.467C277.92 247.879 276.976 248.085 275.854 248.085H272.239V245.919H275.499C276.152 245.919 276.687 245.805 277.104 245.578C277.52 245.351 277.828 245.038 278.027 244.641C278.231 244.243 278.332 243.786 278.332 243.27C278.332 242.754 278.231 242.299 278.027 241.906C277.828 241.513 277.518 241.208 277.097 240.99C276.68 240.768 276.143 240.656 275.484 240.656H273.07V253H270.435ZM287.794 253.213C286.729 253.213 285.806 252.979 285.025 252.51C284.243 252.041 283.637 251.385 283.206 250.543C282.78 249.7 282.567 248.715 282.567 247.588C282.567 246.461 282.78 245.474 283.206 244.626C283.637 243.779 284.243 243.121 285.025 242.652C285.806 242.183 286.729 241.949 287.794 241.949C288.86 241.949 289.783 242.183 290.564 242.652C291.346 243.121 291.949 243.779 292.375 244.626C292.806 245.474 293.022 246.461 293.022 247.588C293.022 248.715 292.806 249.7 292.375 250.543C291.949 251.385 291.346 252.041 290.564 252.51C289.783 252.979 288.86 253.213 287.794 253.213ZM287.809 251.153C288.386 251.153 288.869 250.995 289.257 250.678C289.646 250.356 289.935 249.925 290.124 249.385C290.318 248.845 290.415 248.244 290.415 247.581C290.415 246.913 290.318 246.31 290.124 245.77C289.935 245.225 289.646 244.792 289.257 244.47C288.869 244.148 288.386 243.987 287.809 243.987C287.217 243.987 286.724 244.148 286.331 244.47C285.943 244.792 285.652 245.225 285.458 245.77C285.268 246.31 285.174 246.913 285.174 247.581C285.174 248.244 285.268 248.845 285.458 249.385C285.652 249.925 285.943 250.356 286.331 250.678C286.724 250.995 287.217 251.153 287.809 251.153ZM295.204 253V242.091H297.775V253H295.204ZM296.496 240.543C296.089 240.543 295.739 240.408 295.445 240.138C295.152 239.863 295.005 239.534 295.005 239.151C295.005 238.762 295.152 238.433 295.445 238.163C295.739 237.889 296.089 237.751 296.496 237.751C296.908 237.751 297.259 237.889 297.548 238.163C297.841 238.433 297.988 238.762 297.988 239.151C297.988 239.534 297.841 239.863 297.548 240.138C297.259 240.408 296.908 240.543 296.496 240.543ZM302.99 246.608V253H300.419V242.091H302.876V243.945H303.004C303.255 243.334 303.655 242.848 304.204 242.489C304.758 242.129 305.442 241.949 306.257 241.949C307.01 241.949 307.665 242.11 308.224 242.432C308.788 242.754 309.223 243.22 309.531 243.831C309.843 244.442 309.997 245.183 309.993 246.054V253H307.422V246.452C307.422 245.723 307.232 245.152 306.853 244.74C306.479 244.328 305.961 244.122 305.298 244.122C304.848 244.122 304.448 244.222 304.098 244.42C303.752 244.615 303.48 244.896 303.281 245.266C303.087 245.635 302.99 246.082 302.99 246.608ZM318.054 242.091V244.08H311.782V242.091H318.054ZM313.331 239.477H315.902V249.719C315.902 250.064 315.954 250.33 316.058 250.514C316.167 250.694 316.309 250.817 316.484 250.884C316.659 250.95 316.853 250.983 317.066 250.983C317.227 250.983 317.374 250.971 317.507 250.947C317.644 250.924 317.748 250.902 317.819 250.884L318.252 252.893C318.115 252.941 317.919 252.993 317.663 253.05C317.412 253.107 317.104 253.14 316.74 253.149C316.096 253.168 315.516 253.071 315 252.858C314.484 252.64 314.074 252.304 313.771 251.849C313.473 251.395 313.326 250.827 313.331 250.145V239.477ZM324.916 253.213C323.822 253.213 322.878 252.986 322.082 252.531C321.292 252.072 320.683 251.423 320.257 250.585C319.831 249.742 319.618 248.75 319.618 247.609C319.618 246.487 319.831 245.502 320.257 244.655C320.688 243.803 321.289 243.14 322.061 242.666C322.833 242.188 323.74 241.949 324.781 241.949C325.454 241.949 326.088 242.058 326.685 242.276C327.286 242.489 327.816 242.82 328.276 243.27C328.74 243.72 329.104 244.293 329.369 244.989C329.634 245.68 329.767 246.504 329.767 247.46V248.249H320.825V246.516H327.303C327.298 246.023 327.191 245.585 326.983 245.202C326.775 244.813 326.483 244.508 326.109 244.286C325.74 244.063 325.309 243.952 324.817 243.952C324.291 243.952 323.83 244.08 323.432 244.335C323.034 244.586 322.724 244.918 322.501 245.33C322.284 245.737 322.172 246.184 322.168 246.672V248.185C322.168 248.819 322.284 249.364 322.516 249.818C322.748 250.268 323.072 250.614 323.489 250.855C323.905 251.092 324.393 251.21 324.952 251.21C325.326 251.21 325.664 251.158 325.967 251.054C326.27 250.945 326.533 250.786 326.756 250.578C326.978 250.37 327.146 250.112 327.26 249.804L329.661 250.074C329.509 250.708 329.22 251.262 328.794 251.736C328.373 252.205 327.833 252.569 327.175 252.83C326.517 253.085 325.764 253.213 324.916 253.213ZM331.942 253V242.091H334.435V243.909H334.549C334.748 243.279 335.088 242.794 335.571 242.453C336.059 242.107 336.615 241.935 337.24 241.935C337.382 241.935 337.541 241.942 337.716 241.956C337.896 241.965 338.045 241.982 338.164 242.006V244.371C338.055 244.333 337.882 244.3 337.645 244.271C337.413 244.238 337.188 244.222 336.971 244.222C336.502 244.222 336.08 244.323 335.706 244.527C335.337 244.726 335.046 245.003 334.833 245.358C334.62 245.713 334.513 246.123 334.513 246.587V253H331.942ZM339.985 253V238.455H349.446V240.663H342.62V244.612H348.956V246.821H342.62V250.791H349.502V253H339.985ZM354.591 246.608V253H352.02V242.091H354.478V243.945H354.605C354.856 243.334 355.257 242.848 355.806 242.489C356.36 242.129 357.044 241.949 357.858 241.949C358.611 241.949 359.267 242.11 359.826 242.432C360.389 242.754 360.825 243.22 361.132 243.831C361.445 244.442 361.599 245.183 361.594 246.054V253H359.023V246.452C359.023 245.723 358.834 245.152 358.455 244.74C358.081 244.328 357.562 244.122 356.9 244.122C356.45 244.122 356.05 244.222 355.699 244.42C355.354 244.615 355.081 244.896 354.882 245.266C354.688 245.635 354.591 246.082 354.591 246.608ZM369.655 242.091V244.08H363.384V242.091H369.655ZM364.932 239.477H367.503V249.719C367.503 250.064 367.555 250.33 367.659 250.514C367.768 250.694 367.91 250.817 368.086 250.884C368.261 250.95 368.455 250.983 368.668 250.983C368.829 250.983 368.976 250.971 369.108 250.947C369.246 250.924 369.35 250.902 369.421 250.884L369.854 252.893C369.717 252.941 369.52 252.993 369.265 253.05C369.014 253.107 368.706 253.14 368.341 253.149C367.697 253.168 367.117 253.071 366.601 252.858C366.085 252.64 365.676 252.304 365.373 251.849C365.074 251.395 364.927 250.827 364.932 250.145V239.477ZM376.518 253.213C375.424 253.213 374.479 252.986 373.684 252.531C372.893 252.072 372.285 251.423 371.859 250.585C371.433 249.742 371.219 248.75 371.219 247.609C371.219 246.487 371.433 245.502 371.859 244.655C372.29 243.803 372.891 243.14 373.663 242.666C374.434 242.188 375.341 241.949 376.383 241.949C377.055 241.949 377.69 242.058 378.286 242.276C378.888 242.489 379.418 242.82 379.877 243.27C380.341 243.72 380.706 244.293 380.971 244.989C381.236 245.68 381.369 246.504 381.369 247.46V248.249H372.427V246.516H378.904C378.899 246.023 378.793 245.585 378.585 245.202C378.376 244.813 378.085 244.508 377.711 244.286C377.342 244.063 376.911 243.952 376.418 243.952C375.893 243.952 375.431 244.08 375.033 244.335C374.636 244.586 374.326 244.918 374.103 245.33C373.885 245.737 373.774 246.184 373.769 246.672V248.185C373.769 248.819 373.885 249.364 374.117 249.818C374.349 250.268 374.674 250.614 375.09 250.855C375.507 251.092 375.995 251.21 376.553 251.21C376.927 251.21 377.266 251.158 377.569 251.054C377.872 250.945 378.135 250.786 378.357 250.578C378.58 250.37 378.748 250.112 378.862 249.804L381.262 250.074C381.111 250.708 380.822 251.262 380.396 251.736C379.974 252.205 379.434 252.569 378.776 252.83C378.118 253.085 377.365 253.213 376.518 253.213ZM383.544 253V242.091H386.037V243.909H386.15C386.349 243.279 386.69 242.794 387.173 242.453C387.661 242.107 388.217 241.935 388.842 241.935C388.984 241.935 389.143 241.942 389.318 241.956C389.498 241.965 389.647 241.982 389.765 242.006V244.371C389.656 244.333 389.484 244.3 389.247 244.271C389.015 244.238 388.79 244.222 388.572 244.222C388.103 244.222 387.682 244.323 387.308 244.527C386.939 244.726 386.647 245.003 386.434 245.358C386.221 245.713 386.115 246.123 386.115 246.587V253H383.544Z"
    fill="white" />
  <rect x="100" y="232" width="142" height="27" fill="#333333" />
  <path
    d="M108.69 253V238.455H114.145C115.262 238.455 116.2 238.663 116.957 239.08C117.719 239.496 118.295 240.069 118.683 240.798C119.076 241.523 119.272 242.347 119.272 243.27C119.272 244.203 119.076 245.031 118.683 245.756C118.29 246.48 117.71 247.051 116.943 247.467C116.176 247.879 115.231 248.085 114.109 248.085H110.494V245.919H113.754C114.407 245.919 114.942 245.805 115.359 245.578C115.776 245.351 116.083 245.038 116.282 244.641C116.486 244.243 116.588 243.786 116.588 243.27C116.588 242.754 116.486 242.299 116.282 241.906C116.083 241.513 115.773 241.208 115.352 240.99C114.935 240.768 114.398 240.656 113.74 240.656H111.325V253H108.69ZM126.05 253.213C124.984 253.213 124.061 252.979 123.28 252.51C122.499 252.041 121.893 251.385 121.462 250.543C121.036 249.7 120.822 248.715 120.822 247.588C120.822 246.461 121.036 245.474 121.462 244.626C121.893 243.779 122.499 243.121 123.28 242.652C124.061 242.183 124.984 241.949 126.05 241.949C127.115 241.949 128.038 242.183 128.82 242.652C129.601 243.121 130.205 243.779 130.631 244.626C131.062 245.474 131.277 246.461 131.277 247.588C131.277 248.715 131.062 249.7 130.631 250.543C130.205 251.385 129.601 252.041 128.82 252.51C128.038 252.979 127.115 253.213 126.05 253.213ZM126.064 251.153C126.642 251.153 127.125 250.995 127.513 250.678C127.901 250.356 128.19 249.925 128.379 249.385C128.573 248.845 128.67 248.244 128.67 247.581C128.67 246.913 128.573 246.31 128.379 245.77C128.19 245.225 127.901 244.792 127.513 244.47C127.125 244.148 126.642 243.987 126.064 243.987C125.472 243.987 124.98 244.148 124.587 244.47C124.198 244.792 123.907 245.225 123.713 245.77C123.524 246.31 123.429 246.913 123.429 247.581C123.429 248.244 123.524 248.845 123.713 249.385C123.907 249.925 124.198 250.356 124.587 250.678C124.98 250.995 125.472 251.153 126.064 251.153ZM133.459 253V242.091H136.03V253H133.459ZM134.752 240.543C134.345 240.543 133.994 240.408 133.701 240.138C133.407 239.863 133.26 239.534 133.26 239.151C133.26 238.762 133.407 238.433 133.701 238.163C133.994 237.889 134.345 237.751 134.752 237.751C135.164 237.751 135.514 237.889 135.803 238.163C136.097 238.433 136.243 238.762 136.243 239.151C136.243 239.534 136.097 239.863 135.803 240.138C135.514 240.408 135.164 240.543 134.752 240.543ZM141.245 246.608V253H138.674V242.091H141.131V243.945H141.259C141.51 243.334 141.91 242.848 142.46 242.489C143.014 242.129 143.698 241.949 144.512 241.949C145.265 241.949 145.921 242.11 146.479 242.432C147.043 242.754 147.479 243.22 147.786 243.831C148.099 244.442 148.253 245.183 148.248 246.054V253H145.677V246.452C145.677 245.723 145.487 245.152 145.109 244.74C144.735 244.328 144.216 244.122 143.553 244.122C143.104 244.122 142.703 244.222 142.353 244.42C142.007 244.615 141.735 244.896 141.536 245.266C141.342 245.635 141.245 246.082 141.245 246.608ZM156.309 242.091V244.08H150.038V242.091H156.309ZM151.586 239.477H154.157V249.719C154.157 250.064 154.209 250.33 154.313 250.514C154.422 250.694 154.564 250.817 154.739 250.884C154.915 250.95 155.109 250.983 155.322 250.983C155.483 250.983 155.63 250.971 155.762 250.947C155.899 250.924 156.004 250.902 156.075 250.884L156.508 252.893C156.371 252.941 156.174 252.993 155.918 253.05C155.667 253.107 155.36 253.14 154.995 253.149C154.351 253.168 153.771 253.071 153.255 252.858C152.739 252.64 152.329 252.304 152.026 251.849C151.728 251.395 151.581 250.827 151.586 250.145V239.477ZM163.172 253.213C162.078 253.213 161.133 252.986 160.338 252.531C159.547 252.072 158.939 251.423 158.512 250.585C158.086 249.742 157.873 248.75 157.873 247.609C157.873 246.487 158.086 245.502 158.512 244.655C158.943 243.803 159.545 243.14 160.316 242.666C161.088 242.188 161.995 241.949 163.037 241.949C163.709 241.949 164.343 242.058 164.94 242.276C165.541 242.489 166.072 242.82 166.531 243.27C166.995 243.72 167.36 244.293 167.625 244.989C167.89 245.68 168.022 246.504 168.022 247.46V248.249H159.081V246.516H165.558C165.553 246.023 165.447 245.585 165.238 245.202C165.03 244.813 164.739 244.508 164.365 244.286C163.995 244.063 163.565 243.952 163.072 243.952C162.547 243.952 162.085 244.08 161.687 244.335C161.289 244.586 160.979 244.918 160.757 245.33C160.539 245.737 160.428 246.184 160.423 246.672V248.185C160.423 248.819 160.539 249.364 160.771 249.818C161.003 250.268 161.327 250.614 161.744 250.855C162.161 251.092 162.648 251.21 163.207 251.21C163.581 251.21 163.92 251.158 164.223 251.054C164.526 250.945 164.789 250.786 165.011 250.578C165.234 250.37 165.402 250.112 165.515 249.804L167.916 250.074C167.764 250.708 167.476 251.262 167.049 251.736C166.628 252.205 166.088 252.569 165.43 252.83C164.772 253.085 164.019 253.213 163.172 253.213ZM170.197 253V242.091H172.69V243.909H172.804C173.003 243.279 173.344 242.794 173.827 242.453C174.314 242.107 174.871 241.935 175.496 241.935C175.638 241.935 175.796 241.942 175.972 241.956C176.152 241.965 176.301 241.982 176.419 242.006V244.371C176.31 244.333 176.137 244.3 175.901 244.271C175.669 244.238 175.444 244.222 175.226 244.222C174.757 244.222 174.336 244.323 173.962 244.527C173.592 244.726 173.301 245.003 173.088 245.358C172.875 245.713 172.769 246.123 172.769 246.587V253H170.197ZM178.241 253V238.455H180.876V250.791H187.282V253H178.241ZM194.285 253.213C193.191 253.213 192.246 252.986 191.451 252.531C190.66 252.072 190.052 251.423 189.626 250.585C189.2 249.742 188.987 248.75 188.987 247.609C188.987 246.487 189.2 245.502 189.626 244.655C190.057 243.803 190.658 243.14 191.43 242.666C192.202 242.188 193.108 241.949 194.15 241.949C194.822 241.949 195.457 242.058 196.053 242.276C196.655 242.489 197.185 242.82 197.644 243.27C198.108 243.72 198.473 244.293 198.738 244.989C199.003 245.68 199.136 246.504 199.136 247.46V248.249H190.194V246.516H196.671C196.666 246.023 196.56 245.585 196.352 245.202C196.143 244.813 195.852 244.508 195.478 244.286C195.109 244.063 194.678 243.952 194.185 243.952C193.66 243.952 193.198 244.08 192.8 244.335C192.403 244.586 192.093 244.918 191.87 245.33C191.652 245.737 191.541 246.184 191.536 246.672V248.185C191.536 248.819 191.652 249.364 191.884 249.818C192.116 250.268 192.441 250.614 192.857 250.855C193.274 251.092 193.762 251.21 194.32 251.21C194.694 251.21 195.033 251.158 195.336 251.054C195.639 250.945 195.902 250.786 196.124 250.578C196.347 250.37 196.515 250.112 196.629 249.804L199.029 250.074C198.878 250.708 198.589 251.262 198.163 251.736C197.741 252.205 197.202 252.569 196.543 252.83C195.885 253.085 195.132 253.213 194.285 253.213ZM204.45 253.22C203.759 253.22 203.136 253.097 202.582 252.851C202.033 252.6 201.597 252.231 201.275 251.743C200.958 251.255 200.799 250.654 200.799 249.939C200.799 249.323 200.913 248.814 201.14 248.412C201.368 248.009 201.678 247.688 202.071 247.446C202.464 247.205 202.906 247.022 203.399 246.899C203.896 246.771 204.41 246.679 204.94 246.622C205.579 246.556 206.098 246.497 206.495 246.445C206.893 246.388 207.182 246.303 207.362 246.189C207.547 246.071 207.639 245.888 207.639 245.642V245.599C207.639 245.064 207.48 244.65 207.163 244.357C206.846 244.063 206.389 243.916 205.792 243.916C205.163 243.916 204.663 244.054 204.294 244.328C203.929 244.603 203.683 244.927 203.555 245.301L201.155 244.96C201.344 244.297 201.656 243.743 202.092 243.298C202.528 242.848 203.06 242.512 203.69 242.29C204.32 242.062 205.016 241.949 205.778 241.949C206.304 241.949 206.827 242.01 207.348 242.134C207.869 242.257 208.344 242.46 208.775 242.744C209.206 243.024 209.552 243.405 209.812 243.888C210.077 244.371 210.21 244.974 210.21 245.699V253H207.738V251.501H207.653C207.497 251.804 207.277 252.089 206.993 252.354C206.713 252.614 206.36 252.825 205.934 252.986C205.513 253.142 205.018 253.22 204.45 253.22ZM205.118 251.331C205.634 251.331 206.081 251.229 206.46 251.026C206.839 250.817 207.13 250.543 207.333 250.202C207.542 249.861 207.646 249.489 207.646 249.087V247.801C207.566 247.867 207.428 247.929 207.234 247.986C207.045 248.043 206.832 248.092 206.595 248.135C206.358 248.178 206.124 248.215 205.892 248.249C205.66 248.282 205.458 248.31 205.288 248.334C204.905 248.386 204.561 248.471 204.258 248.589C203.955 248.708 203.716 248.874 203.541 249.087C203.366 249.295 203.278 249.565 203.278 249.896C203.278 250.37 203.451 250.727 203.797 250.969C204.142 251.21 204.583 251.331 205.118 251.331ZM222.149 242.091L218.264 253H215.423L211.538 242.091H214.28L216.787 250.195H216.9L219.414 242.091H222.149ZM228.386 253.213C227.293 253.213 226.348 252.986 225.553 252.531C224.762 252.072 224.153 251.423 223.727 250.585C223.301 249.742 223.088 248.75 223.088 247.609C223.088 246.487 223.301 245.502 223.727 244.655C224.158 243.803 224.76 243.14 225.531 242.666C226.303 242.188 227.21 241.949 228.251 241.949C228.924 241.949 229.558 242.058 230.155 242.276C230.756 242.489 231.287 242.82 231.746 243.27C232.21 243.72 232.574 244.293 232.84 244.989C233.105 245.68 233.237 246.504 233.237 247.46V248.249H224.295V246.516H230.773C230.768 246.023 230.662 245.585 230.453 245.202C230.245 244.813 229.954 244.508 229.58 244.286C229.21 244.063 228.779 243.952 228.287 243.952C227.761 243.952 227.3 244.08 226.902 244.335C226.504 244.586 226.194 244.918 225.972 245.33C225.754 245.737 225.643 246.184 225.638 246.672V248.185C225.638 248.819 225.754 249.364 225.986 249.818C226.218 250.268 226.542 250.614 226.959 250.855C227.376 251.092 227.863 251.21 228.422 251.21C228.796 251.21 229.135 251.158 229.438 251.054C229.741 250.945 230.003 250.786 230.226 250.578C230.448 250.37 230.617 250.112 230.73 249.804L233.131 250.074C232.979 250.708 232.69 251.262 232.264 251.736C231.843 252.205 231.303 252.569 230.645 252.83C229.987 253.085 229.234 253.213 228.386 253.213Z"
    fill="white" />
  <rect x="135" y="146" width="64.9519" height="23" fill="#333333" />
  <path
    d="M158.28 151.902V163.538H156.405L150.922 155.612H150.825V163.538H148.717V151.902H150.603L156.081 159.834H156.183V151.902H158.28ZM164.292 163.709C163.44 163.709 162.701 163.521 162.076 163.146C161.451 162.771 160.967 162.247 160.622 161.573C160.281 160.898 160.111 160.11 160.111 159.209C160.111 158.307 160.281 157.518 160.622 156.84C160.967 156.162 161.451 155.635 162.076 155.26C162.701 154.885 163.44 154.698 164.292 154.698C165.145 154.698 165.883 154.885 166.508 155.26C167.133 155.635 167.616 156.162 167.957 156.84C168.302 157.518 168.474 158.307 168.474 159.209C168.474 160.11 168.302 160.898 167.957 161.573C167.616 162.247 167.133 162.771 166.508 163.146C165.883 163.521 165.145 163.709 164.292 163.709ZM164.304 162.061C164.766 162.061 165.152 161.934 165.463 161.68C165.773 161.423 166.004 161.078 166.156 160.646C166.311 160.215 166.389 159.734 166.389 159.203C166.389 158.669 166.311 158.186 166.156 157.754C166.004 157.319 165.773 156.972 165.463 156.715C165.152 156.457 164.766 156.328 164.304 156.328C163.83 156.328 163.436 156.457 163.122 156.715C162.811 156.972 162.578 157.319 162.423 157.754C162.271 158.186 162.196 158.669 162.196 159.203C162.196 159.734 162.271 160.215 162.423 160.646C162.578 161.078 162.811 161.423 163.122 161.68C163.436 161.934 163.83 162.061 164.304 162.061ZM172.277 158.425V163.538H170.22V154.811H172.186V156.294H172.288C172.489 155.805 172.809 155.417 173.248 155.129C173.691 154.841 174.239 154.698 174.89 154.698C175.493 154.698 176.017 154.826 176.464 155.084C176.915 155.341 177.263 155.715 177.51 156.203C177.76 156.692 177.883 157.285 177.879 157.982V163.538H175.822V158.3C175.822 157.716 175.671 157.26 175.368 156.93C175.068 156.601 174.654 156.436 174.123 156.436C173.763 156.436 173.443 156.516 173.163 156.675C172.887 156.83 172.669 157.055 172.51 157.351C172.354 157.646 172.277 158.004 172.277 158.425ZM183.834 163.709C182.959 163.709 182.203 163.527 181.566 163.163C180.934 162.796 180.447 162.277 180.106 161.607C179.765 160.932 179.595 160.139 179.595 159.226C179.595 158.328 179.765 157.54 180.106 156.862C180.451 156.18 180.932 155.65 181.549 155.271C182.167 154.889 182.892 154.698 183.726 154.698C184.263 154.698 184.771 154.785 185.248 154.959C185.729 155.129 186.154 155.395 186.521 155.754C186.892 156.114 187.184 156.573 187.396 157.129C187.608 157.682 187.714 158.341 187.714 159.107V159.737H180.561V158.351H185.743C185.739 157.957 185.654 157.607 185.487 157.3C185.32 156.989 185.087 156.745 184.788 156.567C184.493 156.389 184.148 156.3 183.754 156.3C183.334 156.3 182.964 156.402 182.646 156.607C182.328 156.807 182.08 157.073 181.902 157.402C181.727 157.728 181.638 158.086 181.635 158.476V159.686C181.635 160.194 181.727 160.629 181.913 160.993C182.099 161.353 182.358 161.629 182.691 161.823C183.025 162.012 183.415 162.107 183.862 162.107C184.161 162.107 184.432 162.065 184.674 161.982C184.917 161.895 185.127 161.768 185.305 161.601C185.483 161.434 185.618 161.228 185.709 160.982L187.629 161.198C187.508 161.705 187.277 162.148 186.936 162.527C186.599 162.902 186.167 163.194 185.64 163.402C185.114 163.607 184.512 163.709 183.834 163.709Z"
    fill="white" />
  <path
    d="M418.496 86L414.391 71.4545H417.224L419.845 82.1435H419.98L422.778 71.4545H425.357L428.162 82.1506H428.29L430.911 71.4545H433.744L429.639 86H427.04L424.128 75.794H424.014L421.095 86H418.496ZM434.774 86V75.0909H437.267V76.9091H437.381C437.58 76.2794 437.92 75.794 438.403 75.4531C438.891 75.1075 439.447 74.9347 440.072 74.9347C440.214 74.9347 440.373 74.9418 440.548 74.956C440.728 74.9654 440.877 74.982 440.996 75.0057V77.3707C440.887 77.3329 440.714 77.2997 440.477 77.2713C440.245 77.2382 440.02 77.2216 439.803 77.2216C439.334 77.2216 438.912 77.3234 438.538 77.527C438.169 77.7259 437.878 78.0028 437.665 78.358C437.452 78.7131 437.345 79.1226 437.345 79.5866V86H434.774ZM445.648 86.2202C444.956 86.2202 444.334 86.0971 443.78 85.8509C443.231 85.5999 442.795 85.2306 442.473 84.7429C442.156 84.2552 441.997 83.6539 441.997 82.9389C441.997 82.3234 442.111 81.8144 442.338 81.4119C442.565 81.0095 442.875 80.6875 443.268 80.446C443.661 80.2045 444.104 80.0223 444.597 79.8991C445.094 79.7713 445.607 79.679 446.138 79.6222C446.777 79.5559 447.295 79.4967 447.693 79.4446C448.091 79.3878 448.38 79.3026 448.56 79.1889C448.744 79.0705 448.837 78.8883 448.837 78.642V78.5994C448.837 78.0644 448.678 77.6501 448.361 77.3565C448.044 77.063 447.587 76.9162 446.99 76.9162C446.36 76.9162 445.861 77.0535 445.491 77.3281C445.127 77.6027 444.881 77.9271 444.753 78.3011L442.352 77.9602C442.542 77.2973 442.854 76.7434 443.29 76.2983C443.725 75.8485 444.258 75.5123 444.888 75.2898C445.518 75.0625 446.214 74.9489 446.976 74.9489C447.501 74.9489 448.025 75.0104 448.545 75.1335C449.066 75.2566 449.542 75.4602 449.973 75.7443C450.404 76.0237 450.75 76.4048 451.01 76.8878C451.275 77.3707 451.408 77.9744 451.408 78.6989V86H448.936V84.5014H448.851C448.695 84.8045 448.474 85.0885 448.19 85.3537C447.911 85.6141 447.558 85.8248 447.132 85.9858C446.711 86.142 446.216 86.2202 445.648 86.2202ZM446.315 84.331C446.831 84.331 447.279 84.2292 447.658 84.0256C448.036 83.8172 448.328 83.5426 448.531 83.2017C448.74 82.8608 448.844 82.4891 448.844 82.0866V80.8011C448.763 80.8674 448.626 80.929 448.432 80.9858C448.242 81.0426 448.029 81.0923 447.793 81.1349C447.556 81.1776 447.321 81.2154 447.089 81.2486C446.857 81.2817 446.656 81.3101 446.486 81.3338C446.102 81.3859 445.759 81.4711 445.456 81.5895C445.153 81.7079 444.914 81.8736 444.739 82.0866C444.563 82.295 444.476 82.5649 444.476 82.8963C444.476 83.3698 444.649 83.7273 444.994 83.9688C445.34 84.2102 445.78 84.331 446.315 84.331ZM453.993 90.0909V75.0909H456.521V76.8949H456.67C456.803 76.6297 456.99 76.348 457.232 76.0497C457.473 75.7467 457.8 75.4886 458.212 75.2756C458.624 75.0578 459.149 74.9489 459.788 74.9489C460.631 74.9489 461.391 75.1643 462.068 75.5952C462.75 76.0213 463.29 76.6534 463.688 77.4915C464.09 78.3248 464.291 79.3475 464.291 80.5597C464.291 81.7576 464.095 82.7756 463.702 83.6136C463.309 84.4517 462.774 85.0909 462.097 85.5312C461.42 85.9716 460.652 86.1918 459.795 86.1918C459.17 86.1918 458.652 86.0876 458.24 85.8793C457.828 85.6709 457.497 85.42 457.246 85.1264C457 84.8281 456.808 84.5464 456.67 84.2812H456.564V90.0909H453.993ZM456.514 80.5455C456.514 81.2509 456.614 81.8688 456.812 82.3991C457.016 82.9295 457.307 83.3437 457.686 83.642C458.07 83.9356 458.534 84.0824 459.078 84.0824C459.646 84.0824 460.122 83.9309 460.506 83.6278C460.889 83.3201 461.178 82.901 461.372 82.3707C461.571 81.8357 461.67 81.2273 461.67 80.5455C461.67 79.8684 461.573 79.267 461.379 78.7415C461.185 78.2159 460.896 77.804 460.513 77.5057C460.129 77.2074 459.651 77.0582 459.078 77.0582C458.529 77.0582 458.062 77.2027 457.679 77.4915C457.295 77.7803 457.004 78.1851 456.805 78.706C456.611 79.2268 456.514 79.84 456.514 80.5455ZM466.493 90.0909V75.0909H469.021V76.8949H469.17C469.303 76.6297 469.49 76.348 469.732 76.0497C469.973 75.7467 470.3 75.4886 470.712 75.2756C471.124 75.0578 471.649 74.9489 472.288 74.9489C473.131 74.9489 473.891 75.1643 474.568 75.5952C475.25 76.0213 475.79 76.6534 476.188 77.4915C476.59 78.3248 476.791 79.3475 476.791 80.5597C476.791 81.7576 476.595 82.7756 476.202 83.6136C475.809 84.4517 475.274 85.0909 474.597 85.5312C473.92 85.9716 473.152 86.1918 472.295 86.1918C471.67 86.1918 471.152 86.0876 470.74 85.8793C470.328 85.6709 469.997 85.42 469.746 85.1264C469.5 84.8281 469.308 84.5464 469.17 84.2812H469.064V90.0909H466.493ZM469.014 80.5455C469.014 81.2509 469.114 81.8688 469.312 82.3991C469.516 82.9295 469.807 83.3437 470.186 83.642C470.57 83.9356 471.034 84.0824 471.578 84.0824C472.146 84.0824 472.622 83.9309 473.006 83.6278C473.389 83.3201 473.678 82.901 473.872 82.3707C474.071 81.8357 474.17 81.2273 474.17 80.5455C474.17 79.8684 474.073 79.267 473.879 78.7415C473.685 78.2159 473.396 77.804 473.013 77.5057C472.629 77.2074 472.151 77.0582 471.578 77.0582C471.029 77.0582 470.562 77.2027 470.179 77.4915C469.795 77.7803 469.504 78.1851 469.305 78.706C469.111 79.2268 469.014 79.84 469.014 80.5455ZM483.822 86.2131C482.729 86.2131 481.784 85.9858 480.989 85.5312C480.198 85.072 479.589 84.4233 479.163 83.5852C478.737 82.7424 478.524 81.7505 478.524 80.6094C478.524 79.4872 478.737 78.5024 479.163 77.6548C479.594 76.8026 480.196 76.1397 480.967 75.6662C481.739 75.188 482.646 74.9489 483.688 74.9489C484.36 74.9489 484.994 75.0578 485.591 75.2756C486.192 75.4886 486.723 75.8201 487.182 76.2699C487.646 76.7197 488.01 77.2926 488.276 77.9886C488.541 78.6799 488.673 79.5038 488.673 80.4602V81.2486H479.732V79.5156H486.209C486.204 79.0232 486.098 78.5852 485.889 78.2017C485.681 77.8134 485.39 77.508 485.016 77.2855C484.646 77.063 484.215 76.9517 483.723 76.9517C483.197 76.9517 482.736 77.0795 482.338 77.3352C481.94 77.5862 481.63 77.9176 481.408 78.3295C481.19 78.7367 481.079 79.1842 481.074 79.6719V81.1847C481.074 81.8191 481.19 82.3636 481.422 82.8182C481.654 83.268 481.978 83.6136 482.395 83.8551C482.812 84.0919 483.299 84.2102 483.858 84.2102C484.232 84.2102 484.571 84.1581 484.874 84.054C485.177 83.9451 485.439 83.7865 485.662 83.5781C485.884 83.3698 486.053 83.1117 486.166 82.804L488.567 83.0739C488.415 83.7083 488.126 84.2623 487.7 84.7358C487.279 85.2045 486.739 85.5691 486.081 85.8295C485.423 86.0852 484.67 86.2131 483.822 86.2131ZM490.848 86V75.0909H493.341V76.9091H493.455C493.654 76.2794 493.995 75.794 494.478 75.4531C494.965 75.1075 495.522 74.9347 496.147 74.9347C496.289 74.9347 496.447 74.9418 496.623 74.956C496.802 74.9654 496.952 74.982 497.07 75.0057V77.3707C496.961 77.3329 496.788 77.2997 496.551 77.2713C496.319 77.2382 496.095 77.2216 495.877 77.2216C495.408 77.2216 494.987 77.3234 494.613 77.527C494.243 77.7259 493.952 78.0028 493.739 78.358C493.526 78.7131 493.419 79.1226 493.419 79.5866V86H490.848Z"
    fill="#BA0606" />
  <path d="M407 80C407.828 80 408.5 79.3284 408.5 78.5C408.5 77.6716 407.828 77 407 77V80ZM377 80H407V77H377V80Z"
    fill="#BA0606" />
  <path
    d="M414.795 102.663V100.455H426.401V102.663H421.905V115H419.291V102.663H414.795ZM431.701 115.213C430.635 115.213 429.712 114.979 428.931 114.51C428.15 114.041 427.543 113.385 427.113 112.543C426.686 111.7 426.473 110.715 426.473 109.588C426.473 108.461 426.686 107.474 427.113 106.626C427.543 105.779 428.15 105.121 428.931 104.652C429.712 104.183 430.635 103.949 431.701 103.949C432.766 103.949 433.689 104.183 434.471 104.652C435.252 105.121 435.855 105.779 436.282 106.626C436.712 107.474 436.928 108.461 436.928 109.588C436.928 110.715 436.712 111.7 436.282 112.543C435.855 113.385 435.252 114.041 434.471 114.51C433.689 114.979 432.766 115.213 431.701 115.213ZM431.715 113.153C432.292 113.153 432.775 112.995 433.164 112.678C433.552 112.356 433.841 111.925 434.03 111.385C434.224 110.845 434.321 110.244 434.321 109.581C434.321 108.913 434.224 108.31 434.03 107.77C433.841 107.225 433.552 106.792 433.164 106.47C432.775 106.148 432.292 105.987 431.715 105.987C431.123 105.987 430.631 106.148 430.238 106.47C429.849 106.792 429.558 107.225 429.364 107.77C429.175 108.31 429.08 108.913 429.08 109.581C429.08 110.244 429.175 110.845 429.364 111.385C429.558 111.925 429.849 112.356 430.238 112.678C430.631 112.995 431.123 113.153 431.715 113.153ZM443.869 115.213C442.803 115.213 441.88 114.979 441.099 114.51C440.317 114.041 439.711 113.385 439.281 112.543C438.854 111.7 438.641 110.715 438.641 109.588C438.641 108.461 438.854 107.474 439.281 106.626C439.711 105.779 440.317 105.121 441.099 104.652C441.88 104.183 442.803 103.949 443.869 103.949C444.934 103.949 445.857 104.183 446.638 104.652C447.42 105.121 448.023 105.779 448.45 106.626C448.88 107.474 449.096 108.461 449.096 109.588C449.096 110.715 448.88 111.7 448.45 112.543C448.023 113.385 447.42 114.041 446.638 114.51C445.857 114.979 444.934 115.213 443.869 115.213ZM443.883 113.153C444.46 113.153 444.943 112.995 445.332 112.678C445.72 112.356 446.009 111.925 446.198 111.385C446.392 110.845 446.489 110.244 446.489 109.581C446.489 108.913 446.392 108.31 446.198 107.77C446.009 107.225 445.72 106.792 445.332 106.47C444.943 106.148 444.46 105.987 443.883 105.987C443.291 105.987 442.799 106.148 442.406 106.47C442.017 106.792 441.726 107.225 441.532 107.77C441.343 108.31 441.248 108.913 441.248 109.581C441.248 110.244 441.343 110.845 441.532 111.385C441.726 111.925 442.017 112.356 442.406 112.678C442.799 112.995 443.291 113.153 443.883 113.153ZM453.849 100.455V115H451.278V100.455H453.849ZM461.94 104.091V106.08H455.669V104.091H461.94ZM457.217 101.477H459.788V111.719C459.788 112.064 459.84 112.33 459.945 112.514C460.054 112.694 460.196 112.817 460.371 112.884C460.546 112.95 460.74 112.983 460.953 112.983C461.114 112.983 461.261 112.971 461.393 112.947C461.531 112.924 461.635 112.902 461.706 112.884L462.139 114.893C462.002 114.941 461.805 114.993 461.55 115.05C461.299 115.107 460.991 115.14 460.626 115.149C459.982 115.168 459.402 115.071 458.886 114.858C458.37 114.64 457.961 114.304 457.658 113.849C457.359 113.395 457.213 112.827 457.217 112.145V101.477ZM464.091 115V104.091H466.662V115H464.091ZM465.383 102.543C464.976 102.543 464.626 102.408 464.332 102.138C464.038 101.863 463.892 101.534 463.892 101.151C463.892 100.762 464.038 100.433 464.332 100.163C464.626 99.8887 464.976 99.7514 465.383 99.7514C465.795 99.7514 466.145 99.8887 466.434 100.163C466.728 100.433 466.875 100.762 466.875 101.151C466.875 101.534 466.728 101.863 466.434 102.138C466.145 102.408 465.795 102.543 465.383 102.543ZM469.305 119.091V104.091H471.834V105.895H471.983C472.116 105.63 472.303 105.348 472.544 105.05C472.786 104.747 473.112 104.489 473.524 104.276C473.936 104.058 474.462 103.949 475.101 103.949C475.944 103.949 476.704 104.164 477.381 104.595C478.063 105.021 478.602 105.653 479 106.491C479.402 107.325 479.604 108.348 479.604 109.56C479.604 110.758 479.407 111.776 479.014 112.614C478.621 113.452 478.086 114.091 477.409 114.531C476.732 114.972 475.965 115.192 475.108 115.192C474.483 115.192 473.964 115.088 473.553 114.879C473.141 114.671 472.809 114.42 472.558 114.126C472.312 113.828 472.12 113.546 471.983 113.281H471.876V119.091H469.305ZM471.827 109.545C471.827 110.251 471.926 110.869 472.125 111.399C472.329 111.929 472.62 112.344 472.999 112.642C473.382 112.936 473.846 113.082 474.391 113.082C474.959 113.082 475.435 112.931 475.818 112.628C476.202 112.32 476.491 111.901 476.685 111.371C476.884 110.836 476.983 110.227 476.983 109.545C476.983 108.868 476.886 108.267 476.692 107.741C476.498 107.216 476.209 106.804 475.825 106.506C475.442 106.207 474.964 106.058 474.391 106.058C473.841 106.058 473.375 106.203 472.991 106.491C472.608 106.78 472.317 107.185 472.118 107.706C471.924 108.227 471.827 108.84 471.827 109.545Z"
    fill="#40BA06" />
  <path
    d="M408 109C408.828 109 409.5 108.328 409.5 107.5C409.5 106.672 408.828 106 408 106V109ZM368 109H408V106H368V109Z"
    fill="#40BA06" />
  <path
    d="M414.795 197.663V195.455H426.401V197.663H421.905V210H419.291V197.663H414.795ZM427.391 210V199.091H429.884V200.909H429.998C430.197 200.279 430.538 199.794 431.021 199.453C431.508 199.107 432.065 198.935 432.69 198.935C432.832 198.935 432.99 198.942 433.165 198.956C433.345 198.965 433.495 198.982 433.613 199.006V201.371C433.504 201.333 433.331 201.3 433.094 201.271C432.862 201.238 432.638 201.222 432.42 201.222C431.951 201.222 431.53 201.323 431.156 201.527C430.786 201.726 430.495 202.003 430.282 202.358C430.069 202.713 429.962 203.123 429.962 203.587V210H427.391ZM435.321 210V199.091H437.892V210H435.321ZM436.614 197.543C436.206 197.543 435.856 197.408 435.562 197.138C435.269 196.863 435.122 196.534 435.122 196.151C435.122 195.762 435.269 195.433 435.562 195.163C435.856 194.889 436.206 194.751 436.614 194.751C437.026 194.751 437.376 194.889 437.665 195.163C437.958 195.433 438.105 195.762 438.105 196.151C438.105 196.534 437.958 196.863 437.665 197.138C437.376 197.408 437.026 197.543 436.614 197.543ZM445.28 214.318C444.357 214.318 443.564 214.193 442.901 213.942C442.238 213.696 441.705 213.364 441.303 212.947C440.9 212.531 440.621 212.069 440.465 211.562L442.78 211.001C442.884 211.214 443.036 211.425 443.235 211.634C443.434 211.847 443.701 212.022 444.037 212.159C444.378 212.301 444.807 212.372 445.323 212.372C446.052 212.372 446.656 212.195 447.134 211.839C447.612 211.489 447.851 210.911 447.851 210.107V208.04H447.723C447.591 208.305 447.397 208.577 447.141 208.857C446.89 209.136 446.556 209.37 446.14 209.56C445.728 209.749 445.209 209.844 444.584 209.844C443.746 209.844 442.986 209.647 442.304 209.254C441.627 208.857 441.087 208.265 440.685 207.479C440.287 206.688 440.088 205.698 440.088 204.51C440.088 203.312 440.287 202.301 440.685 201.477C441.087 200.649 441.63 200.021 442.311 199.595C442.993 199.164 443.753 198.949 444.591 198.949C445.23 198.949 445.756 199.058 446.168 199.276C446.585 199.489 446.916 199.747 447.162 200.05C447.408 200.348 447.596 200.63 447.723 200.895H447.865V199.091H450.401V210.178C450.401 211.11 450.178 211.882 449.733 212.493C449.288 213.104 448.68 213.561 447.908 213.864C447.136 214.167 446.26 214.318 445.28 214.318ZM445.301 207.827C445.846 207.827 446.31 207.694 446.694 207.429C447.077 207.164 447.368 206.783 447.567 206.286C447.766 205.788 447.865 205.192 447.865 204.496C447.865 203.809 447.766 203.208 447.567 202.692C447.373 202.176 447.084 201.776 446.701 201.491C446.322 201.203 445.855 201.058 445.301 201.058C444.729 201.058 444.25 201.207 443.867 201.506C443.483 201.804 443.194 202.214 443 202.734C442.806 203.25 442.709 203.838 442.709 204.496C442.709 205.163 442.806 205.748 443 206.25C443.199 206.747 443.49 207.135 443.874 207.415C444.262 207.689 444.738 207.827 445.301 207.827ZM457.78 214.318C456.857 214.318 456.064 214.193 455.401 213.942C454.738 213.696 454.205 213.364 453.803 212.947C453.4 212.531 453.121 212.069 452.965 211.562L455.28 211.001C455.384 211.214 455.536 211.425 455.735 211.634C455.934 211.847 456.201 212.022 456.537 212.159C456.878 212.301 457.307 212.372 457.823 212.372C458.552 212.372 459.156 212.195 459.634 211.839C460.112 211.489 460.351 210.911 460.351 210.107V208.04H460.223C460.091 208.305 459.897 208.577 459.641 208.857C459.39 209.136 459.056 209.37 458.64 209.56C458.228 209.749 457.709 209.844 457.084 209.844C456.246 209.844 455.486 209.647 454.804 209.254C454.127 208.857 453.587 208.265 453.185 207.479C452.787 206.688 452.588 205.698 452.588 204.51C452.588 203.312 452.787 202.301 453.185 201.477C453.587 200.649 454.13 200.021 454.811 199.595C455.493 199.164 456.253 198.949 457.091 198.949C457.73 198.949 458.256 199.058 458.668 199.276C459.085 199.489 459.416 199.747 459.662 200.05C459.908 200.348 460.096 200.63 460.223 200.895H460.365V199.091H462.901V210.178C462.901 211.11 462.678 211.882 462.233 212.493C461.788 213.104 461.18 213.561 460.408 213.864C459.636 214.167 458.76 214.318 457.78 214.318ZM457.801 207.827C458.346 207.827 458.81 207.694 459.194 207.429C459.577 207.164 459.868 206.783 460.067 206.286C460.266 205.788 460.365 205.192 460.365 204.496C460.365 203.809 460.266 203.208 460.067 202.692C459.873 202.176 459.584 201.776 459.201 201.491C458.822 201.203 458.355 201.058 457.801 201.058C457.229 201.058 456.75 201.207 456.367 201.506C455.983 201.804 455.694 202.214 455.5 202.734C455.306 203.25 455.209 203.838 455.209 204.496C455.209 205.163 455.306 205.748 455.5 206.25C455.699 206.747 455.99 207.135 456.374 207.415C456.762 207.689 457.238 207.827 457.801 207.827ZM470.365 210.213C469.272 210.213 468.327 209.986 467.532 209.531C466.741 209.072 466.132 208.423 465.706 207.585C465.28 206.742 465.067 205.75 465.067 204.609C465.067 203.487 465.28 202.502 465.706 201.655C466.137 200.803 466.739 200.14 467.51 199.666C468.282 199.188 469.189 198.949 470.23 198.949C470.903 198.949 471.537 199.058 472.134 199.276C472.735 199.489 473.266 199.82 473.725 200.27C474.189 200.72 474.553 201.293 474.819 201.989C475.084 202.68 475.216 203.504 475.216 204.46V205.249H466.275V203.516H472.752C472.747 203.023 472.641 202.585 472.432 202.202C472.224 201.813 471.933 201.508 471.559 201.286C471.189 201.063 470.758 200.952 470.266 200.952C469.74 200.952 469.279 201.08 468.881 201.335C468.483 201.586 468.173 201.918 467.951 202.33C467.733 202.737 467.622 203.184 467.617 203.672V205.185C467.617 205.819 467.733 206.364 467.965 206.818C468.197 207.268 468.521 207.614 468.938 207.855C469.355 208.092 469.842 208.21 470.401 208.21C470.775 208.21 471.114 208.158 471.417 208.054C471.72 207.945 471.982 207.786 472.205 207.578C472.427 207.37 472.596 207.112 472.709 206.804L475.11 207.074C474.958 207.708 474.669 208.262 474.243 208.736C473.822 209.205 473.282 209.569 472.624 209.83C471.966 210.085 471.213 210.213 470.365 210.213ZM477.391 210V199.091H479.884V200.909H479.998C480.197 200.279 480.538 199.794 481.021 199.453C481.508 199.107 482.065 198.935 482.69 198.935C482.832 198.935 482.99 198.942 483.165 198.956C483.345 198.965 483.495 198.982 483.613 199.006V201.371C483.504 201.333 483.331 201.3 483.094 201.271C482.862 201.238 482.638 201.222 482.42 201.222C481.951 201.222 481.53 201.323 481.156 201.527C480.786 201.726 480.495 202.003 480.282 202.358C480.069 202.713 479.962 203.123 479.962 203.587V210H477.391ZM490.396 210V195.455H499.856V197.663H493.031V201.612H499.366V203.821H493.031V207.791H499.913V210H490.396ZM505.001 195.455V210H502.43V195.455H505.001ZM512.475 210.213C511.381 210.213 510.436 209.986 509.641 209.531C508.85 209.072 508.242 208.423 507.816 207.585C507.39 206.742 507.176 205.75 507.176 204.609C507.176 203.487 507.39 202.502 507.816 201.655C508.247 200.803 508.848 200.14 509.62 199.666C510.391 199.188 511.298 198.949 512.34 198.949C513.012 198.949 513.647 199.058 514.243 199.276C514.845 199.489 515.375 199.82 515.834 200.27C516.298 200.72 516.663 201.293 516.928 201.989C517.193 202.68 517.326 203.504 517.326 204.46V205.249H508.384V203.516H514.861C514.856 203.023 514.75 202.585 514.542 202.202C514.333 201.813 514.042 201.508 513.668 201.286C513.299 201.063 512.868 200.952 512.375 200.952C511.85 200.952 511.388 201.08 510.99 201.335C510.593 201.586 510.283 201.918 510.06 202.33C509.842 202.737 509.731 203.184 509.726 203.672V205.185C509.726 205.819 509.842 206.364 510.074 206.818C510.306 207.268 510.631 207.614 511.047 207.855C511.464 208.092 511.952 208.21 512.51 208.21C512.884 208.21 513.223 208.158 513.526 208.054C513.829 207.945 514.092 207.786 514.314 207.578C514.537 207.37 514.705 207.112 514.819 206.804L517.219 207.074C517.068 207.708 516.779 208.262 516.353 208.736C515.931 209.205 515.391 209.569 514.733 209.83C514.075 210.085 513.322 210.213 512.475 210.213ZM519.501 210V199.091H521.958V200.945H522.086C522.313 200.32 522.69 199.832 523.215 199.482C523.741 199.126 524.368 198.949 525.097 198.949C525.836 198.949 526.459 199.129 526.965 199.489C527.477 199.844 527.836 200.329 528.045 200.945H528.158C528.4 200.339 528.807 199.856 529.38 199.496C529.958 199.131 530.642 198.949 531.433 198.949C532.436 198.949 533.255 199.266 533.89 199.901C534.524 200.535 534.842 201.461 534.842 202.678V210H532.263V203.075C532.263 202.398 532.084 201.903 531.724 201.591C531.364 201.274 530.924 201.115 530.403 201.115C529.782 201.115 529.297 201.309 528.947 201.697C528.601 202.081 528.428 202.58 528.428 203.196V210H525.907V202.969C525.907 202.405 525.737 201.955 525.396 201.619C525.059 201.283 524.619 201.115 524.075 201.115C523.705 201.115 523.369 201.21 523.066 201.399C522.763 201.584 522.522 201.847 522.342 202.188C522.162 202.524 522.072 202.917 522.072 203.366V210H519.501ZM542.279 210.213C541.186 210.213 540.241 209.986 539.446 209.531C538.655 209.072 538.047 208.423 537.62 207.585C537.194 206.742 536.981 205.75 536.981 204.609C536.981 203.487 537.194 202.502 537.62 201.655C538.051 200.803 538.653 200.14 539.424 199.666C540.196 199.188 541.103 198.949 542.145 198.949C542.817 198.949 543.451 199.058 544.048 199.276C544.649 199.489 545.18 199.82 545.639 200.27C546.103 200.72 546.467 201.293 546.733 201.989C546.998 202.68 547.13 203.504 547.13 204.46V205.249H538.189V203.516H544.666C544.661 203.023 544.555 202.585 544.346 202.202C544.138 201.813 543.847 201.508 543.473 201.286C543.103 201.063 542.672 200.952 542.18 200.952C541.654 200.952 541.193 201.08 540.795 201.335C540.397 201.586 540.087 201.918 539.865 202.33C539.647 202.737 539.536 203.184 539.531 203.672V205.185C539.531 205.819 539.647 206.364 539.879 206.818C540.111 207.268 540.435 207.614 540.852 207.855C541.269 208.092 541.756 208.21 542.315 208.21C542.689 208.21 543.028 208.158 543.331 208.054C543.634 207.945 543.896 207.786 544.119 207.578C544.342 207.37 544.51 207.112 544.623 206.804L547.024 207.074C546.872 207.708 546.583 208.262 546.157 208.736C545.736 209.205 545.196 209.569 544.538 209.83C543.88 210.085 543.127 210.213 542.279 210.213ZM551.876 203.608V210H549.305V199.091H551.763V200.945H551.891C552.142 200.334 552.542 199.848 553.091 199.489C553.645 199.129 554.329 198.949 555.143 198.949C555.896 198.949 556.552 199.11 557.111 199.432C557.674 199.754 558.11 200.22 558.418 200.831C558.73 201.442 558.884 202.183 558.879 203.054V210H556.308V203.452C556.308 202.723 556.119 202.152 555.74 201.74C555.366 201.328 554.848 201.122 554.185 201.122C553.735 201.122 553.335 201.222 552.984 201.42C552.639 201.615 552.366 201.896 552.168 202.266C551.973 202.635 551.876 203.082 551.876 203.608ZM566.94 199.091V201.08H560.669V199.091H566.94ZM562.217 196.477H564.788V206.719C564.788 207.064 564.84 207.33 564.945 207.514C565.054 207.694 565.196 207.817 565.371 207.884C565.546 207.95 565.74 207.983 565.953 207.983C566.114 207.983 566.261 207.971 566.393 207.947C566.531 207.924 566.635 207.902 566.706 207.884L567.139 209.893C567.002 209.941 566.805 209.993 566.55 210.05C566.299 210.107 565.991 210.14 565.626 210.149C564.982 210.168 564.402 210.071 563.886 209.858C563.37 209.64 562.961 209.304 562.658 208.849C562.359 208.395 562.213 207.827 562.217 207.145V196.477Z"
    fill="#066EBA" />
  <path
    d="M407.5 204C408.328 204 409 203.328 409 202.5C409 201.672 408.328 201 407.5 201V204ZM289 204H407.5V201H289V204Z"
    fill="#066EBA" />
</svg>